#N canvas 1163 134 614 675 12;
#X obj 276 70 bng 19 250 50 0 empty empty empty 0 -10 0 12 #fcfcfc #000000 #000000;
#X obj 276 170 unpack;
#X floatatom 274 202 5 0 0 0 - - - 0;
#X floatatom 320 202 5 0 0 0 - - - 0;
#X obj 377 187 unpack;
#X floatatom 377 219 5 0 0 0 - - - 0;
#X floatatom 423 219 5 0 0 0 - - - 0;
#X obj 469 186 unpack;
#X floatatom 469 218 5 0 0 0 - - - 0;
#X floatatom 515 218 5 0 0 0 - - - 0;
#X floatatom 334 153 5 0 0 0 - - - 0;
#X floatatom 377 153 5 0 0 0 - - - 0;
#X floatatom 420 153 5 0 0 0 - - - 0;
#X floatatom 463 152 5 0 0 0 - - - 0;
#X obj 274 229 mtof;
#X obj 328 238 / 127;
#N canvas 816 169 696 691 square_wave 0;
#X floatatom 100 69 5 0 0 0 - - - 0;
#X obj 116 116 * -1;
#X obj 97 224 -~ 1;
#X obj 96 197 +~;
#X obj 98 15 inlet;
#X obj 98 348 outlet~;
#X obj 58 159 phasor~ 0;
#X obj 159 157 phasor~ 0.5;
#X obj 99 41 unpack;
#X obj 102 298 *~;
#X obj 145 227 adsr 0 10 1 0;
#X obj 178 61 select 0;
#X msg 175 97 0;
#X connect 0 0 1 0;
#X connect 0 0 6 0;
#X connect 1 0 7 0;
#X connect 2 0 9 0;
#X connect 3 0 2 0;
#X connect 4 0 8 0;
#X connect 6 0 3 0;
#X connect 7 0 3 1;
#X connect 8 0 0 0;
#X connect 8 1 10 0;
#X connect 8 1 11 0;
#X connect 9 0 5 0;
#X connect 10 0 9 1;
#X connect 11 0 12 0;
#X connect 12 0 0 0;
#X restore 182 445 pd square_wave;
#X msg 232 205 0;
#X obj 273 330 poly 2;
#X obj 273 356 pack 0 0 0;
#X obj 273 382 route 1 2;
#X obj 273 278 pack 0 0;
#X floatatom 334 406 5 0 0 0 - - - 0;
#X msg 319 69 stop;
#X obj 174 129 bng 19 250 50 0 empty empty empty 0 -10 0 12 #fcfcfc #000000 #000000;
#X obj 276 98 cyclone/seq Square_Waves_.mid;
#X obj 276 125 cyclone/midiparse;
#X obj 175 97 delay 48001;
#X obj 267 38 inlet;
#X obj 318 39 bng 19 250 50 0 empty stopbuttom empty 0 -10 0 12 #fcfcfc #000000 #000000;
#X obj 281 524 *~;
#X obj 357 487 loadbang;
#X msg 330 520 0.4;
#N canvas 430 166 696 691 square_wave2 0;
#X floatatom 99 90 5 0 0 0 - - - 0;
#X obj 116 116 * -1;
#X obj 97 224 -~ 1;
#X obj 96 197 +~;
#X obj 98 15 inlet;
#X obj 97 325 outlet~;
#X obj 58 159 phasor~ 0;
#X obj 159 157 phasor~ 0.5;
#X obj 99 41 unpack;
#X obj 103 274 *~;
#X obj 145 227 adsr 0 10 1 0;
#X obj 178 61 select 0;
#X msg 175 97 0;
#X connect 0 0 1 0;
#X connect 0 0 6 0;
#X connect 1 0 7 0;
#X connect 2 0 9 0;
#X connect 3 0 2 0;
#X connect 4 0 8 0;
#X connect 6 0 3 0;
#X connect 7 0 3 1;
#X connect 8 0 0 0;
#X connect 8 1 11 0;
#X connect 8 1 10 0;
#X connect 9 0 5 0;
#X connect 10 0 9 1;
#X connect 11 0 12 0;
#X connect 12 0 0 0;
#X restore 300 445 pd square_wave2;
#X msg 164 233 clear;
#X obj 281 556 outlet~;
#X connect 0 0 25 0;
#X connect 0 0 27 0;
#X connect 0 0 32 0;
#X connect 1 0 2 0;
#X connect 1 1 3 0;
#X connect 2 0 14 0;
#X connect 3 0 15 0;
#X connect 4 0 5 0;
#X connect 4 1 6 0;
#X connect 7 0 8 0;
#X connect 7 1 9 0;
#X connect 14 0 21 0;
#X connect 15 0 21 1;
#X connect 16 0 30 0;
#X connect 17 0 2 0;
#X connect 17 0 3 0;
#X connect 17 0 19 2;
#X connect 17 0 16 0;
#X connect 17 0 33 0;
#X connect 17 0 30 1;
#X connect 18 0 19 0;
#X connect 18 1 19 1;
#X connect 18 2 19 2;
#X connect 19 0 20 0;
#X connect 20 0 16 0;
#X connect 20 1 33 0;
#X connect 20 2 22 0;
#X connect 21 0 18 0;
#X connect 23 0 17 0;
#X connect 23 0 25 0;
#X connect 23 0 18 0;
#X connect 23 0 34 0;
#X connect 24 0 17 0;
#X connect 25 0 26 0;
#X connect 26 0 1 0;
#X connect 26 1 4 0;
#X connect 26 2 7 0;
#X connect 26 3 10 0;
#X connect 26 4 11 0;
#X connect 26 5 12 0;
#X connect 26 6 13 0;
#X connect 27 0 24 0;
#X connect 28 0 0 0;
#X connect 29 0 23 0;
#X connect 30 0 35 0;
#X connect 31 0 32 0;
#X connect 32 0 30 1;
#X connect 33 0 30 0;
#X connect 34 0 18 0;
