#N canvas 431 26 849 699 12;
#X msg 438 27 stop;
#X obj 369 130 unpack;
#X floatatom 367 162 5 0 0 0 - - - 0;
#X floatatom 413 162 5 0 0 0 - - - 0;
#X obj 466 131 unpack;
#X floatatom 464 163 5 0 0 0 - - - 0;
#X floatatom 510 163 5 0 0 0 - - - 0;
#X obj 562 209 unpack;
#X floatatom 560 241 5 0 0 0 - - - 0;
#X floatatom 606 241 5 0 0 0 - - - 0;
#X floatatom 586 187 5 0 0 0 - - - 0;
#X floatatom 638 187 5 0 0 0 - - - 0;
#X floatatom 654 158 5 0 0 0 - - - 0;
#X floatatom 654 126 5 0 0 0 - - - 0;
#X obj 367 189 mtof;
#X floatatom 367 213 5 0 0 0 - - - 0;
#X obj 421 198 / 127;
#X msg 478 202 0;
#X obj 367 287 poly 3;
#X obj 366 332 pack 0 0 0;
#X obj 365 370 route 1 2 3;
#N canvas 669 130 562 564 strings 0;
#X obj 176 113 inlet;
#X obj 169 229 osc~;
#X obj 265 476 outlet~;
#X obj 274 407 *~;
#X obj 374 116 inlet;
#X obj 225 309 +~;
#X obj 250 243 *~ 1;
#X obj 246 205 osc~ 1.5;
#X obj 317 357 adsr 40 100 1 50;
#X connect 0 0 1 0;
#X connect 1 0 5 0;
#X connect 3 0 2 0;
#X connect 4 0 8 0;
#X connect 5 0 3 0;
#X connect 6 0 5 1;
#X connect 7 0 6 0;
#X connect 8 0 3 1;
#X restore 343 472 pd strings;
#N canvas 669 130 562 564 strings 0;
#X obj 176 113 inlet;
#X obj 169 229 osc~;
#X obj 265 476 outlet~;
#X obj 274 407 *~;
#X obj 374 116 inlet;
#X obj 225 309 +~;
#X obj 250 243 *~ 1;
#X obj 246 205 osc~ 1.5;
#X obj 317 357 adsr 40 100 1 50;
#X connect 0 0 1 0;
#X connect 1 0 5 0;
#X connect 3 0 2 0;
#X connect 4 0 8 0;
#X connect 5 0 3 0;
#X connect 6 0 5 1;
#X connect 7 0 6 0;
#X connect 8 0 3 1;
#X restore 424 471 pd strings;
#N canvas 669 130 562 564 strings 0;
#X obj 176 113 inlet;
#X obj 169 229 osc~;
#X obj 265 476 outlet~;
#X obj 274 407 *~;
#X obj 374 116 inlet;
#X obj 225 309 +~;
#X obj 250 243 *~ 1;
#X obj 246 205 osc~ 1.5;
#X obj 317 357 adsr 40 100 1 50;
#X connect 0 0 1 0;
#X connect 1 0 5 0;
#X connect 3 0 2 0;
#X connect 4 0 8 0;
#X connect 5 0 3 0;
#X connect 6 0 5 1;
#X connect 7 0 6 0;
#X connect 8 0 3 1;
#X restore 506 469 pd strings;
#X obj 368 251 pack 0 0;
#X obj 287 409 unpack 0 0;
#X obj 376 409 unpack 0 0;
#X obj 464 411 unpack 0 0;
#X floatatom 585 406 5 0 0 0 - - - 0;
#X floatatom 254 482 5 0 0 0 - - - 0;
#X floatatom 199 441 5 0 0 0 - - - 0;
#X obj 391 60 cyclone/seq Strings_.mid;
#X obj 387 27 inlet;
#X obj 443 1 bng 19 250 50 0 empty stopbuttom empty 0 -10 0 12 #fcfcfc #000000 #000000;
#X obj 492 92 cyclone/midiparse;
#X obj 449 527 *~;
#X obj 231 61 delay 80000;
#X msg 607 433 0;
#X msg 279 258 clear;
#X obj 318 10 bng 19 250 50 0 empty empty empty 0 -10 0 12 #fcfcfc #000000 #000000;
#X msg 503 505 0;
#X msg 230 88 0.4;
#X obj 438 567 outlet~;
#X obj 182 196 bng 19 250 50 0 string empty empty 0 -10 0 12 #fcfcfc #000000 #000000;
#X connect 0 0 17 0;
#X connect 0 0 31 0;
#X connect 0 0 37 0;
#X connect 0 0 38 0;
#X connect 1 0 2 0;
#X connect 1 1 3 0;
#X connect 2 0 14 0;
#X connect 3 0 16 0;
#X connect 4 0 5 0;
#X connect 4 1 6 0;
#X connect 7 0 8 0;
#X connect 7 1 9 0;
#X connect 14 0 15 0;
#X connect 15 0 24 0;
#X connect 16 0 24 1;
#X connect 17 0 21 1;
#X connect 17 0 22 1;
#X connect 17 0 23 1;
#X connect 18 0 19 0;
#X connect 18 1 19 1;
#X connect 18 2 19 2;
#X connect 19 0 20 0;
#X connect 20 0 25 0;
#X connect 20 1 26 0;
#X connect 20 2 27 0;
#X connect 21 0 35 0;
#X connect 22 0 35 0;
#X connect 23 0 35 0;
#X connect 24 0 18 0;
#X connect 25 0 21 0;
#X connect 25 0 30 0;
#X connect 25 1 21 1;
#X connect 26 0 22 0;
#X connect 26 0 29 0;
#X connect 26 1 22 1;
#X connect 27 0 23 0;
#X connect 27 0 28 0;
#X connect 27 1 23 1;
#X connect 31 0 34 0;
#X connect 31 0 43 0;
#X connect 32 0 31 0;
#X connect 32 0 36 0;
#X connect 32 0 40 0;
#X connect 33 0 0 0;
#X connect 34 0 1 0;
#X connect 34 1 4 0;
#X connect 34 2 7 0;
#X connect 34 3 10 0;
#X connect 34 4 11 0;
#X connect 34 5 12 0;
#X connect 34 6 13 0;
#X connect 35 0 42 0;
#X connect 36 0 41 0;
#X connect 37 0 21 0;
#X connect 37 0 22 0;
#X connect 37 0 23 0;
#X connect 38 0 18 0;
#X connect 39 0 31 0;
#X connect 39 0 36 0;
#X connect 40 0 35 1;
#X connect 41 0 35 1;
