#N canvas 668 -1270 1294 775 12;
#X obj 266 76 Electric_Guitar;
#X obj 107 14 bng 19 250 50 0 start_all_final empty empty 0 -10 0 12 #fcfcfc #000000 #000000;
#X obj 261 15 bng 19 250 50 0 stopbuttom empty empty 0 -10 0 12 #fcfcfc #000000 #000000;
#X obj 383 76 Rock_Organ;
#X obj 936 76 Drumset;
#X obj 469 76 Square_Waves;
#X obj 570 76 Brass;
#X obj 626 76 Buzzy;
#X obj 683 76 violin;
#X obj 182 76 Impact_Hit;
#X obj 49 76 Overdriven_Guitar;
#X obj 749 76 String1;
#X obj 803 76 String2;
#X obj 880 76 Bass;
#X text 137 15 start all;
#X text 291 15 stop all;
#X obj 49 61 bng 15 250 50 0 empty start_all_final empty 0 -10 0 12 #fcfcfc #000000 #000000;
#X obj 182 61 bng 15 250 50 0 empty start_all_final empty 0 -10 0 12 #fcfcfc #000000 #000000;
#X obj 266 61 bng 15 250 50 0 empty start_all_final empty 0 -10 0 12 #fcfcfc #000000 #000000;
#X obj 383 61 bng 15 250 50 0 empty start_all_final empty 0 -10 0 12 #fcfcfc #000000 #000000;
#X obj 683 61 bng 15 250 50 0 empty start_all_final empty 0 -10 0 12 #fcfcfc #000000 #000000;
#X obj 626 61 bng 15 250 50 0 empty start_all_final empty 0 -10 0 12 #fcfcfc #000000 #000000;
#X obj 570 61 bng 15 250 50 0 empty start_all_final empty 0 -10 0 12 #fcfcfc #000000 #000000;
#X obj 469 61 bng 15 250 50 0 empty start_all_final empty 0 -10 0 12 #fcfcfc #000000 #000000;
#X obj 749 61 bng 15 250 50 0 empty start_all_final empty 0 -10 0 12 #fcfcfc #000000 #000000;
#X obj 936 61 bng 15 250 50 0 empty start_all_final empty 0 -10 0 12 #fcfcfc #000000 #000000;
#X obj 803 60 bng 15 250 50 0 empty start_all_final empty 0 -10 0 12 #fcfcfc #000000 #000000;
#X obj 880 61 bng 15 250 50 0 empty start_all_final empty 0 -10 0 12 #fcfcfc #000000 #000000;
#X obj 330 157 dac~ 1;
#X obj 50 259 dac~ 2;
#X obj 181 257 dac~ 3;
#X obj 471 256 dac~ 4;
#X obj 600 258 dac~ 5;
#X obj 803 258 dac~ 6;
#X obj 276 490 netsend -u -b;
#X msg 297 395 send /duck 1;
#X msg 400 394 send /duck 2;
#X obj 297 445 packOSC;
#X msg 165 441 disconnect;
#X floatatom 504 335 5 0 0 0 - - - 0;
#X msg 502 394 send /track/1/azim \$1;
#X msg 276 367 connect localhost 9999;
#X obj 687 330 bng 19 250 50 0 empty impact_hit empty 0 -10 0 12 #fcfcfc #000000 #000000;
#X obj 820 329 bng 19 250 50 0 empty string empty 0 -10 0 12 #fcfcfc #000000 #000000;
#X msg 812 391 send /gb_rd;
#X obj 925 326 bng 19 250 50 0 empty start_all_final empty 0 -10 0 12 #fcfcfc #000000 #000000;
#X msg 916 391 send /gb_start;
#X obj 504 450 bng 19 250 50 0 empty stopbuttom empty 0 -10 0 12 #fcfcfc #000000 #000000;
#X msg 501 483 send /gb_stop;
#X msg 681 394 send /gb_lf;
#X obj 669 456 bng 19 250 50 0 empty signal_Bone0 empty 0 -10 0 12 #fcfcfc #000000 #000000;
#X obj 669 502 bng 19 250 50 0 empty signal_Bone1 empty 0 -10 0 12 #fcfcfc #000000 #000000;
#X msg 669 480 send /bone 0;
#X msg 669 530 send /bone 1;
#X obj 672 558 bng 19 250 50 0 empty signal_Bone2 empty 0 -10 0 12 #fcfcfc #000000 #000000;
#X msg 672 586 send /bone 2;
#X connect 0 0 28 0;
#X connect 3 0 28 0;
#X connect 4 0 28 0;
#X connect 5 0 31 0;
#X connect 6 0 32 0;
#X connect 7 0 32 0;
#X connect 8 0 28 0;
#X connect 9 0 30 0;
#X connect 10 0 29 0;
#X connect 10 1 28 0;
#X connect 11 0 28 0;
#X connect 12 0 33 0;
#X connect 13 0 28 0;
#X connect 16 0 10 0;
#X connect 17 0 9 0;
#X connect 18 0 0 0;
#X connect 19 0 3 0;
#X connect 20 0 8 0;
#X connect 21 0 7 0;
#X connect 22 0 6 0;
#X connect 23 0 5 0;
#X connect 24 0 11 0;
#X connect 25 0 4 0;
#X connect 26 0 12 0;
#X connect 27 0 13 0;
#X connect 35 0 37 0;
#X connect 36 0 37 0;
#X connect 37 0 34 0;
#X connect 38 0 34 0;
#X connect 39 0 40 0;
#X connect 40 0 37 0;
#X connect 41 0 34 0;
#X connect 42 0 49 0;
#X connect 43 0 44 0;
#X connect 44 0 37 0;
#X connect 45 0 46 0;
#X connect 46 0 37 0;
#X connect 47 0 48 0;
#X connect 48 0 37 0;
#X connect 49 0 37 0;
#X connect 50 0 52 0;
#X connect 51 0 53 0;
#X connect 52 0 37 0;
#X connect 53 0 37 0;
#X connect 54 0 55 0;
#X connect 55 0 37 0;
