#N canvas -119 -934 1294 765 12;
#X obj 266 76 Electric_Guitar;
#X obj 107 14 bng 19 250 50 0 start_all_final empty empty 0 -10 0 12 #fcfcfc #000000 #000000;
#X obj 261 15 bng 19 250 50 0 stopbuttom empty empty 0 -10 0 12 #fcfcfc #000000 #000000;
#X obj 383 76 Rock_Organ;
#X obj 936 76 Drumset;
#X obj 469 76 Square_Waves;
#X obj 570 76 Brass;
#X obj 626 76 Buzzy;
#X obj 683 76 violin;
#X obj 182 76 Impact_Hit;
#X obj 49 76 Overdriven_Guitar;
#X obj 749 76 String1;
#X obj 803 76 String2;
#X obj 880 76 Bass;
#X text 137 15 start all;
#X text 291 15 stop all;
#X obj 49 61 bng 15 250 50 0 empty start_all_final empty 0 -10 0 12 #fcfcfc #000000 #000000;
#X obj 182 61 bng 15 250 50 0 empty start_all_final empty 0 -10 0 12 #fcfcfc #000000 #000000;
#X obj 266 61 bng 15 250 50 0 empty start_all_final empty 0 -10 0 12 #fcfcfc #000000 #000000;
#X obj 383 61 bng 15 250 50 0 empty start_all_final empty 0 -10 0 12 #fcfcfc #000000 #000000;
#X obj 683 61 bng 15 250 50 0 empty start_all_final empty 0 -10 0 12 #fcfcfc #000000 #000000;
#X obj 626 61 bng 15 250 50 0 empty start_all_final empty 0 -10 0 12 #fcfcfc #000000 #000000;
#X obj 570 61 bng 15 250 50 0 empty start_all_final empty 0 -10 0 12 #fcfcfc #000000 #000000;
#X obj 469 61 bng 15 250 50 0 empty start_all_final empty 0 -10 0 12 #fcfcfc #000000 #000000;
#X obj 749 61 bng 15 250 50 0 empty start_all_final empty 0 -10 0 12 #fcfcfc #000000 #000000;
#X obj 936 61 bng 15 250 50 0 empty start_all_final empty 0 -10 0 12 #fcfcfc #000000 #000000;
#X obj 803 60 bng 15 250 50 0 empty start_all_final empty 0 -10 0 12 #fcfcfc #000000 #000000;
#X obj 880 61 bng 15 250 50 0 empty start_all_final empty 0 -10 0 12 #fcfcfc #000000 #000000;
#X obj 330 157 dac~ 1;
#X obj 50 259 dac~ 2;
#X obj 181 257 dac~ 3;
#X obj 471 256 dac~ 4;
#X obj 600 258 dac~ 5;
#X obj 803 258 dac~ 6;
#X msg 257 362 connect localhost 9999;
#X obj 244 406 s connect_to_processing;
#X obj 398 302 loadbang;
#X msg 441 368 connect localhost 4002;
#X obj 439 405 s connect_to_panoramix;
#X connect 0 0 28 0;
#X connect 3 0 28 0;
#X connect 4 0 28 0;
#X connect 5 0 31 0;
#X connect 6 0 32 0;
#X connect 7 0 32 0;
#X connect 8 0 28 0;
#X connect 9 0 30 0;
#X connect 10 0 29 0;
#X connect 10 1 28 0;
#X connect 11 0 28 0;
#X connect 12 0 33 0;
#X connect 13 0 28 0;
#X connect 16 0 10 0;
#X connect 17 0 9 0;
#X connect 18 0 0 0;
#X connect 19 0 3 0;
#X connect 20 0 8 0;
#X connect 21 0 7 0;
#X connect 22 0 6 0;
#X connect 23 0 5 0;
#X connect 24 0 11 0;
#X connect 25 0 4 0;
#X connect 26 0 12 0;
#X connect 27 0 13 0;
#X connect 34 0 35 0;
#X connect 36 0 34 0;
#X connect 36 0 37 0;
#X connect 37 0 38 0;
