#N canvas 0 38 1512 856 12;
#X obj 115 123 unpack;
#X floatatom 113 155 5 0 0 0 - - - 0;
#X floatatom 159 155 5 0 0 0 - - - 0;
#X obj 212 124 unpack;
#X floatatom 210 156 5 0 0 0 - - - 0;
#X floatatom 256 156 5 0 0 0 - - - 0;
#X obj 308 202 unpack;
#X floatatom 306 234 5 0 0 0 - - - 0;
#X floatatom 352 234 5 0 0 0 - - - 0;
#X floatatom 332 180 5 0 0 0 - - - 0;
#X floatatom 384 180 5 0 0 0 - - - 0;
#X floatatom 400 151 5 0 0 0 - - - 0;
#X floatatom 400 119 5 0 0 0 - - - 0;
#X obj 137 53 cyclone/seq Bass_.mid;
#N canvas 551 72 961 773 bass 0;
#X obj 46 234 osc~;
#X obj 106 234 osc~;
#X obj 106 198 * 2;
#X floatatom 65 332 5 0 1 0 - - - 0;
#X obj 47 364 *~;
#X floatatom 125 332 5 0 1 0 - - - 0;
#X obj 107 364 *~;
#X floatatom 194 332 5 0 1 0 - - - 0;
#X obj 176 364 *~;
#X msg 125 306 0.05;
#X msg 194 305 0.05;
#X obj 341 442 sel 0;
#X msg 338 479 0;
#X msg 372 479 1;
#X msg 399 531 \$1 20;
#X msg 339 531 \$1 20;
#X obj 177 178 * 3;
#X obj 177 236 osc~;
#X floatatom 456 336 5 0 1 0 - - - 0;
#X obj 438 368 *~;
#X msg 456 309 0.05;
#X obj 439 240 osc~;
#X obj 439 182 / 2;
#X msg 65 306 0.2;
#X floatatom 274 332 5 0 1 0 - - - 0;
#X obj 256 364 *~;
#X msg 274 305 0.05;
#X obj 257 236 osc~;
#X obj 257 178 expr ($f1*3)*0.99;
#X obj 512 209 loadbang;
#X msg 589 238 \; pd dsp 1;
#X msg 589 288 \; pd dsp 0;
#X obj 174 812 dac~;
#X obj 90 560 clip~ -0.9 0.9;
#X obj 88 520 *~;
#X obj 143 516 line~;
#X obj 92 610 outlet~;
#X obj 44 24 inlet;
#X obj 335 384 inlet;
#X connect 0 0 4 0;
#X connect 1 0 6 0;
#X connect 2 0 1 0;
#X connect 3 0 4 1;
#X connect 4 0 34 0;
#X connect 5 0 6 1;
#X connect 6 0 34 0;
#X connect 7 0 8 1;
#X connect 8 0 34 0;
#X connect 9 0 5 0;
#X connect 10 0 7 0;
#X connect 11 0 12 0;
#X connect 11 1 13 0;
#X connect 12 0 15 0;
#X connect 13 0 14 0;
#X connect 14 0 35 0;
#X connect 15 0 35 0;
#X connect 16 0 17 0;
#X connect 17 0 8 0;
#X connect 18 0 19 1;
#X connect 19 0 34 0;
#X connect 20 0 18 0;
#X connect 21 0 19 0;
#X connect 22 0 21 0;
#X connect 23 0 3 0;
#X connect 24 0 25 1;
#X connect 25 0 34 0;
#X connect 26 0 24 0;
#X connect 27 0 25 0;
#X connect 28 0 27 0;
#X connect 29 0 30 0;
#X connect 29 0 23 0;
#X connect 29 0 20 0;
#X connect 29 0 26 0;
#X connect 29 0 9 0;
#X connect 29 0 10 0;
#X connect 33 0 36 0;
#X connect 34 0 33 0;
#X connect 35 0 34 1;
#X connect 37 0 0 0;
#X connect 37 0 2 0;
#X connect 37 0 16 0;
#X connect 37 0 28 0;
#X connect 37 0 22 0;
#X connect 38 0 11 0;
#X restore 119 259 pd bass;
#X obj 115 182 mtof;
#X floatatom 117 218 5 0 0 0 - - - 0;
#X msg 241 29 stop;
#X obj 240 3 bng 19 250 50 0 empty stopbuttom empty 0 -10 0 12 #fcfcfc #000000 #000000;
#X obj 120 430 *~ 1;
#X msg 52 61 1;
#X obj 137 22 inlet;
#X obj 238 85 cyclone/midiparse;
#X msg 321 56 0;
#X obj 118 521 outlet ~;
#X connect 0 0 1 0;
#X connect 0 1 2 0;
#X connect 1 0 15 0;
#X connect 2 0 14 1;
#X connect 3 0 4 0;
#X connect 3 1 5 0;
#X connect 6 0 7 0;
#X connect 6 1 8 0;
#X connect 13 0 22 0;
#X connect 14 0 19 0;
#X connect 15 0 16 0;
#X connect 16 0 14 0;
#X connect 17 0 13 0;
#X connect 17 0 23 0;
#X connect 18 0 17 0;
#X connect 19 0 24 0;
#X connect 20 0 19 1;
#X connect 21 0 13 0;
#X connect 21 0 20 0;
#X connect 22 0 0 0;
#X connect 22 1 3 0;
#X connect 22 2 6 0;
#X connect 22 3 9 0;
#X connect 22 4 10 0;
#X connect 22 5 11 0;
#X connect 22 6 12 0;
#X connect 23 0 19 1;
