#N canvas 197 49 598 675 12;
#X obj 79 204 unpack;
#X floatatom 77 236 5 0 0 0 - - - 0;
#X floatatom 123 236 5 0 0 0 - - - 0;
#X obj 180 221 unpack;
#X floatatom 180 253 5 0 0 0 - - - 0;
#X floatatom 226 253 5 0 0 0 - - - 0;
#X obj 272 220 unpack;
#X floatatom 272 252 5 0 0 0 - - - 0;
#X floatatom 318 252 5 0 0 0 - - - 0;
#X floatatom 137 187 5 0 0 0 - - - 0;
#X floatatom 180 187 5 0 0 0 - - - 0;
#X floatatom 223 187 5 0 0 0 - - - 0;
#X floatatom 266 186 5 0 0 0 - - - 0;
#X obj 77 263 mtof;
#X obj 71 638 dac~;
#X obj 131 272 / 127;
#X obj 79 159 cyclone/midiparse;
#X msg 38 235 0;
#X obj 76 364 poly 2;
#X obj 76 390 pack 0 0 0;
#X obj 76 416 route 1 2;
#X obj 62 522 *~;
#X obj 76 312 pack 0 0;
#X obj 100 521 *~;
#X floatatom 137 440 5 0 0 0 - - - 0;
#X msg 122 103 stop;
#X obj -72 171 bng 19 250 50 0 empty empty empty 0 -10 0 12 #fcfcfc #000000 #000000;
#N canvas 64 231 915 518 brass 0;
#N canvas 1076 117 735 734 dkbrass1-table 0;
#X obj 175 94 until;
#X obj 195 153 f 0;
#X msg 271 91 0;
#X obj 254 165 + 1;
#X obj 336 230 random 7;
#X obj 342 260 + 995;
#X obj 330 396 list prepend;
#X obj 310 457 list;
#X obj 170 440 list append;
#X obj 196 382 \$0;
#X obj 170 476 list trim;
#X obj 197 46 t b b b;
#X obj 342 322 / 16;
#X obj 429 257 pow;
#X obj 429 151 t b b f;
#X obj 342 347 * 1;
#X text 440 230 scaling \, 0.63^harm;
#X obj 225 314 bang;
#X obj 163 207 t f f f;
#X obj 189 265 sel 15;
#X msg 416 196 0.83;
#X obj 342 297 / 250;
#X obj 381 435 array define \$0-dkbrass1-sines 2051;
#X msg 162 542 \; \$1-dkbrass1-sines sinesum 2048 \$2 \$3 \$4 \$5 \$6 \$7 \$8 \$9 \$10 \$11 \$12 \$13 \$14 \$15 \$16 \$17;
#X obj 170 6 loadbang;
#X connect 0 0 1 0;
#X connect 1 0 18 0;
#X connect 2 0 1 1;
#X connect 3 0 1 1;
#X connect 4 0 5 0;
#X connect 5 0 21 0;
#X connect 6 0 7 0;
#X connect 7 0 6 1;
#X connect 7 0 8 1;
#X connect 8 0 10 0;
#X connect 9 0 8 0;
#X connect 10 0 23 0;
#X connect 11 0 0 0;
#X connect 11 1 2 0;
#X connect 11 2 7 0;
#X connect 12 0 15 0;
#X connect 13 0 15 1;
#X connect 14 0 4 0;
#X connect 14 1 20 0;
#X connect 14 2 13 1;
#X connect 15 0 6 0;
#X connect 17 0 9 0;
#X connect 17 0 0 1;
#X connect 18 0 19 0;
#X connect 18 1 3 0;
#X connect 18 2 14 0;
#X connect 19 0 17 0;
#X connect 20 0 13 0;
#X connect 21 0 12 0;
#X connect 24 0 11 0;
#X restore 492 17 pd dkbrass1-table;
#X obj 235 167 osc~ 5;
#X obj 187 216 tabosc4~ \$0-dkbrass1-sines;
#X obj 178 167 +~;
#X obj 170 134 sig~ 440;
#X obj 394 126 > 10;
#X obj 269 373 line~;
#X obj 275 266 t b b;
#X obj 269 398 *~ 1;
#X obj 191 501 *~;
#X obj 394 151 sel 1 0;
#X obj 261 495 vline~;
#X msg 385 410 0 200;
#X obj 199 99 moses 10;
#X obj 191 476 vcf~ 2;
#X msg 256 324 4 20;
#X msg 301 330 1 10;
#X obj 249 293 delay 10;
#X msg 315 458 1 10 \, 0.7 200 10;
#X obj 186 66 t f f;
#X obj 182 13 inlet;
#X text 8 9 dkbrass1~ - brass synth;
#X obj 194 552 outlet~;
#X obj 276 14 loadbang;
#X msg 276 39 0;
#X text 340 32 gpl v3;
#X text 436 50 borrowed from;
#X text 442 69 Epic Sax Guy (cheap version);
#X text 444 90 by rukano from sccode.org;
#X text 338 10 Derek Kwan 2017;
#X text 8 64 inlet: f - freq in hz;
#X obj 182 39 unpack 0 0;
#X obj 279 69 outlet;
#X connect 1 0 3 1;
#X connect 2 0 14 0;
#X connect 3 0 2 0;
#X connect 4 0 3 0;
#X connect 5 0 10 0;
#X connect 6 0 8 0;
#X connect 7 0 17 0;
#X connect 7 1 16 0;
#X connect 8 0 14 1;
#X connect 9 0 22 0;
#X connect 10 0 7 0;
#X connect 10 0 18 0;
#X connect 10 1 12 0;
#X connect 11 0 9 1;
#X connect 12 0 11 0;
#X connect 13 1 8 1;
#X connect 13 1 4 0;
#X connect 14 0 9 0;
#X connect 15 0 6 0;
#X connect 16 0 6 0;
#X connect 17 0 15 0;
#X connect 18 0 11 0;
#X connect 19 0 13 0;
#X connect 19 1 5 0;
#X connect 20 0 31 0;
#X connect 23 0 24 0;
#X connect 24 0 19 0;
#X connect 31 0 19 0;
#X connect 31 1 32 0;
#X restore 32 481 pd brass;
#N canvas 208 246 915 518 brass 0;
#N canvas 1076 117 735 734 dkbrass1-table 0;
#X obj 175 94 until;
#X obj 195 153 f 0;
#X msg 271 91 0;
#X obj 254 165 + 1;
#X obj 336 230 random 7;
#X obj 342 260 + 995;
#X obj 330 396 list prepend;
#X obj 310 457 list;
#X obj 170 440 list append;
#X obj 196 382 \$0;
#X obj 170 476 list trim;
#X obj 197 46 t b b b;
#X obj 342 322 / 16;
#X obj 429 257 pow;
#X obj 429 151 t b b f;
#X obj 342 347 * 1;
#X text 440 230 scaling \, 0.63^harm;
#X obj 225 314 bang;
#X obj 163 207 t f f f;
#X obj 189 265 sel 15;
#X msg 416 196 0.83;
#X obj 342 297 / 250;
#X obj 381 435 array define \$0-dkbrass1-sines 2051;
#X msg 162 542 \; \$1-dkbrass1-sines sinesum 2048 \$2 \$3 \$4 \$5 \$6 \$7 \$8 \$9 \$10 \$11 \$12 \$13 \$14 \$15 \$16 \$17;
#X obj 170 6 loadbang;
#X connect 0 0 1 0;
#X connect 1 0 18 0;
#X connect 2 0 1 1;
#X connect 3 0 1 1;
#X connect 4 0 5 0;
#X connect 5 0 21 0;
#X connect 6 0 7 0;
#X connect 7 0 6 1;
#X connect 7 0 8 1;
#X connect 8 0 10 0;
#X connect 9 0 8 0;
#X connect 10 0 23 0;
#X connect 11 0 0 0;
#X connect 11 1 2 0;
#X connect 11 2 7 0;
#X connect 12 0 15 0;
#X connect 13 0 15 1;
#X connect 14 0 4 0;
#X connect 14 1 20 0;
#X connect 14 2 13 1;
#X connect 15 0 6 0;
#X connect 17 0 9 0;
#X connect 17 0 0 1;
#X connect 18 0 19 0;
#X connect 18 1 3 0;
#X connect 18 2 14 0;
#X connect 19 0 17 0;
#X connect 20 0 13 0;
#X connect 21 0 12 0;
#X connect 24 0 11 0;
#X restore 492 17 pd dkbrass1-table;
#X obj 235 167 osc~ 5;
#X obj 187 216 tabosc4~ \$0-dkbrass1-sines;
#X obj 178 167 +~;
#X obj 170 134 sig~ 440;
#X obj 394 126 > 10;
#X obj 269 373 line~;
#X obj 275 266 t b b;
#X obj 269 398 *~ 1;
#X obj 191 501 *~;
#X obj 394 151 sel 1 0;
#X obj 261 495 vline~;
#X msg 385 410 0 200;
#X obj 199 99 moses 10;
#X obj 191 476 vcf~ 2;
#X msg 256 324 4 20;
#X msg 301 330 1 10;
#X obj 249 293 delay 10;
#X msg 315 458 1 10 \, 0.7 200 10;
#X obj 186 66 t f f;
#X obj 182 13 inlet;
#X text 8 9 dkbrass1~ - brass synth;
#X obj 194 552 outlet~;
#X obj 276 14 loadbang;
#X msg 276 39 0;
#X text 340 32 gpl v3;
#X text 436 50 borrowed from;
#X text 442 69 Epic Sax Guy (cheap version);
#X text 444 90 by rukano from sccode.org;
#X text 338 10 Derek Kwan 2017;
#X text 8 64 inlet: f - freq in hz;
#X obj 182 39 unpack 0 0;
#X obj 279 69 outlet;
#X connect 1 0 3 1;
#X connect 2 0 14 0;
#X connect 3 0 2 0;
#X connect 4 0 3 0;
#X connect 5 0 10 0;
#X connect 6 0 8 0;
#X connect 7 0 17 0;
#X connect 7 1 16 0;
#X connect 8 0 14 1;
#X connect 9 0 22 0;
#X connect 10 0 7 0;
#X connect 10 0 18 0;
#X connect 10 1 12 0;
#X connect 11 0 9 1;
#X connect 12 0 11 0;
#X connect 13 1 8 1;
#X connect 13 1 4 0;
#X connect 14 0 9 0;
#X connect 15 0 6 0;
#X connect 16 0 6 0;
#X connect 17 0 15 0;
#X connect 18 0 11 0;
#X connect 19 0 13 0;
#X connect 19 1 5 0;
#X connect 20 0 31 0;
#X connect 23 0 24 0;
#X connect 24 0 19 0;
#X connect 31 0 19 0;
#X connect 31 1 32 0;
#X restore 101 482 pd brass;
#X obj 79 132 cyclone/seq Brass_.mid;
#X obj -71 139 delay 80001;
#X obj 120 72 bng 19 250 50 0 empty stopbuttom empty 0 -10 0 12 #fcfcfc #000000 #000000;
#X obj 62 78 inlet;
#X obj 75 577 *~;
#X obj 219 508 loadbang;
#X msg 171 548 1;
#X obj 8 64 bng 19 250 50 0 empty empty empty 0 -10 0 12 #fcfcfc #000000 #000000;
#X connect 0 0 1 0;
#X connect 0 1 2 0;
#X connect 1 0 13 0;
#X connect 2 0 15 0;
#X connect 3 0 4 0;
#X connect 3 1 5 0;
#X connect 6 0 7 0;
#X connect 6 1 8 0;
#X connect 13 0 22 0;
#X connect 15 0 22 1;
#X connect 16 0 0 0;
#X connect 16 1 3 0;
#X connect 16 2 6 0;
#X connect 16 3 9 0;
#X connect 16 4 10 0;
#X connect 16 5 11 0;
#X connect 16 6 12 0;
#X connect 17 0 21 1;
#X connect 17 0 23 1;
#X connect 17 0 1 0;
#X connect 17 0 2 0;
#X connect 18 0 19 0;
#X connect 18 1 19 1;
#X connect 18 2 19 2;
#X connect 19 0 20 0;
#X connect 20 0 27 0;
#X connect 20 1 28 0;
#X connect 20 2 24 0;
#X connect 21 0 33 0;
#X connect 22 0 18 0;
#X connect 23 0 33 0;
#X connect 25 0 17 0;
#X connect 25 0 29 0;
#X connect 26 0 17 0;
#X connect 27 0 21 0;
#X connect 27 1 21 1;
#X connect 28 0 23 0;
#X connect 28 1 23 1;
#X connect 29 0 16 0;
#X connect 30 0 26 0;
#X connect 31 0 25 0;
#X connect 32 0 30 0;
#X connect 32 0 29 0;
#X connect 33 0 14 0;
#X connect 33 0 14 1;
#X connect 34 0 35 0;
#X connect 35 0 33 1;
#X connect 36 0 29 0;
