#N canvas 93 131 552 675 12;
#X obj 228 226 unpack;
#X floatatom 226 258 5 0 0 0 - - - 0;
#X floatatom 272 258 5 0 0 0 - - - 0;
#X obj 329 243 unpack;
#X floatatom 329 275 5 0 0 0 - - - 0;
#X floatatom 375 275 5 0 0 0 - - - 0;
#X obj 421 242 unpack;
#X floatatom 421 274 5 0 0 0 - - - 0;
#X floatatom 467 274 5 0 0 0 - - - 0;
#X floatatom 286 209 5 0 0 0 - - - 0;
#X floatatom 329 209 5 0 0 0 - - - 0;
#X floatatom 372 209 5 0 0 0 - - - 0;
#X floatatom 415 208 5 0 0 0 - - - 0;
#X obj 226 285 mtof;
#X obj 280 294 / 127;
#X obj 228 181 cyclone/midiparse;
#X msg 175 258 0;
#X obj 225 386 poly 2;
#X obj 225 412 pack 0 0 0;
#X obj 225 438 route 1 2;
#X obj 212 592 *~;
#X obj 225 334 pack 0 0;
#X obj 251 593 *~;
#X floatatom 285 462 5 0 0 0 - - - 0;
#X msg 271 125 stop;
#X obj 228 154 cyclone/seq Buzzy_.mid;
#X obj 189 519 osc~;
#X obj 188 544 *~ 0.4;
#X obj 253 520 osc~;
#X obj 252 545 *~ 0.4;
#X obj 189 494 unpack;
#X obj 253 494 unpack;
#X obj 109 185 bng 19 250 50 0 empty empty empty 0 -10 0 12 #fcfcfc #000000 #000000;
#X obj 110 153 delay 112001;
#X obj 269 96 bng 19 250 50 0 empty stopbuttom empty 0 -10 0 12 #fcfcfc #000000 #000000;
#X obj 201 101 inlet;
#X obj 230 628 *~;
#X obj 148 88 bng 19 250 50 0 empty empty empty 0 -10 0 12 #fcfcfc #000000 #000000;
#X msg 299 592 0.9;
#X obj 226 655 outlet~;
#X connect 0 0 1 0;
#X connect 0 1 2 0;
#X connect 1 0 13 0;
#X connect 2 0 14 0;
#X connect 3 0 4 0;
#X connect 3 1 5 0;
#X connect 6 0 7 0;
#X connect 6 1 8 0;
#X connect 13 0 21 0;
#X connect 14 0 21 1;
#X connect 15 0 0 0;
#X connect 15 1 3 0;
#X connect 15 2 6 0;
#X connect 15 3 9 0;
#X connect 15 4 10 0;
#X connect 15 5 11 0;
#X connect 15 6 12 0;
#X connect 16 0 20 1;
#X connect 16 0 22 1;
#X connect 16 0 1 0;
#X connect 16 0 2 0;
#X connect 17 0 18 0;
#X connect 17 1 18 1;
#X connect 17 2 18 2;
#X connect 18 0 19 0;
#X connect 19 0 30 0;
#X connect 19 1 31 0;
#X connect 19 2 23 0;
#X connect 20 0 36 0;
#X connect 21 0 17 0;
#X connect 22 0 36 0;
#X connect 24 0 16 0;
#X connect 24 0 25 0;
#X connect 25 0 15 0;
#X connect 26 0 27 0;
#X connect 27 0 20 0;
#X connect 28 0 29 0;
#X connect 29 0 22 0;
#X connect 30 0 26 0;
#X connect 30 1 20 1;
#X connect 31 0 28 0;
#X connect 31 1 22 1;
#X connect 32 0 16 0;
#X connect 33 0 32 0;
#X connect 34 0 24 0;
#X connect 35 0 25 0;
#X connect 35 0 33 0;
#X connect 35 0 38 0;
#X connect 36 0 39 0;
#X connect 37 0 25 0;
#X connect 37 0 33 0;
#X connect 37 0 38 0;
#X connect 38 0 36 1;
