#N canvas 113 -1283 2157 1231 12;
#X obj 228 226 unpack;
#X floatatom 226 258 5 0 0 0 - - - 0;
#X floatatom 272 258 5 0 0 0 - - - 0;
#X obj 329 243 unpack;
#X floatatom 329 275 5 0 0 0 - - - 0;
#X floatatom 375 275 5 0 0 0 - - - 0;
#X obj 421 242 unpack;
#X floatatom 421 274 5 0 0 0 - - - 0;
#X floatatom 467 274 5 0 0 0 - - - 0;
#X floatatom 286 209 5 0 0 0 - - - 0;
#X floatatom 329 209 5 0 0 0 - - - 0;
#X floatatom 372 209 5 0 0 0 - - - 0;
#X floatatom 415 208 5 0 0 0 - - - 0;
#X obj 226 285 mtof;
#X obj 280 294 / 127;
#X obj 228 181 cyclone/midiparse;
#X msg 175 258 0;
#X obj 225 386 poly 2;
#X obj 225 412 pack 0 0 0;
#X obj 225 438 route 1 2;
#X obj 212 592 *~;
#X obj 225 334 pack 0 0;
#X obj 251 593 *~;
#X floatatom 285 462 5 0 0 0 - - - 0;
#X msg 271 125 stop;
#X obj 189 519 osc~;
#X obj 188 544 *~ 0.4;
#X obj 253 520 osc~;
#X obj 252 545 *~ 0.4;
#X obj 189 494 unpack;
#X obj 253 494 unpack;
#X obj 109 185 bng 19 250 50 0 empty empty empty 0 -10 0 12 #fcfcfc #000000 #000000;
#X obj 110 153 delay 112001;
#X obj 269 96 bng 19 250 50 0 empty stopbuttom empty 0 -10 0 12 #fcfcfc #000000 #000000;
#X obj 201 101 inlet;
#X obj 230 628 *~;
#X obj 148 88 bng 19 250 50 0 empty empty empty 0 -10 0 12 #fcfcfc #000000 #000000;
#X msg 299 592 0.9;
#X obj 226 655 outlet~;
#X obj 1045 321 unpack;
#X floatatom 1043 353 5 0 0 0 - - - 0;
#X floatatom 1089 353 5 0 0 0 - - - 0;
#X obj 1146 338 unpack;
#X floatatom 1146 370 5 0 0 0 - - - 0;
#X floatatom 1192 370 5 0 0 0 - - - 0;
#X obj 1238 337 unpack;
#X floatatom 1238 369 5 0 0 0 - - - 0;
#X floatatom 1284 369 5 0 0 0 - - - 0;
#X floatatom 1103 304 5 0 0 0 - - - 0;
#X floatatom 1146 304 5 0 0 0 - - - 0;
#X floatatom 1189 304 5 0 0 0 - - - 0;
#X floatatom 1232 303 5 0 0 0 - - - 0;
#X obj 1043 380 mtof;
#X obj 1097 389 / 127;
#X obj 1045 276 cyclone/midiparse;
#X msg 992 353 0;
#X obj 1042 481 poly 2;
#X obj 1042 507 pack 0 0 0;
#X obj 1042 429 pack 0 0;
#X msg 1088 220 stop;
#X obj 926 280 bng 19 250 50 0 empty empty empty 0 -10 0 12 #fcfcfc #000000 #000000;
#X obj 927 248 delay 112001;
#X obj 1086 191 bng 19 250 50 0 empty stopbuttom empty 0 -10 0 12 #fcfcfc #000000 #000000;
#X obj 965 183 bng 19 250 50 0 empty empty empty 0 -10 0 12 #fcfcfc #000000 #000000;
#X obj 104 258 bng 19 250 50 0 empty empty empty 0 -10 0 12 #fcfcfc #000000 #000000;
#X obj 1045 249 cyclone/seq Buzzy_Up.mid;
#X obj 228 154 cyclone/seq Buzzy_.mid;
#X obj 1336 495 bng 19 250 50 0 signal_Bone0 empty empty 0 -10 0 12 #fcfcfc #000000 #000000;
#X obj 1516 312 unpack;
#X floatatom 1514 344 5 0 0 0 - - - 0;
#X floatatom 1560 344 5 0 0 0 - - - 0;
#X obj 1617 329 unpack;
#X floatatom 1617 361 5 0 0 0 - - - 0;
#X floatatom 1663 361 5 0 0 0 - - - 0;
#X obj 1709 328 unpack;
#X floatatom 1709 360 5 0 0 0 - - - 0;
#X floatatom 1755 360 5 0 0 0 - - - 0;
#X floatatom 1574 295 5 0 0 0 - - - 0;
#X floatatom 1617 295 5 0 0 0 - - - 0;
#X floatatom 1660 295 5 0 0 0 - - - 0;
#X floatatom 1703 294 5 0 0 0 - - - 0;
#X obj 1514 371 mtof;
#X obj 1568 380 / 127;
#X obj 1516 267 cyclone/midiparse;
#X msg 1463 344 0;
#X obj 1513 472 poly 2;
#X obj 1513 498 pack 0 0 0;
#X obj 1513 420 pack 0 0;
#X msg 1559 211 stop;
#X obj 1397 271 bng 19 250 50 0 empty empty empty 0 -10 0 12 #fcfcfc #000000 #000000;
#X obj 1398 239 delay 112001;
#X obj 1557 182 bng 19 250 50 0 empty stopbuttom empty 0 -10 0 12 #fcfcfc #000000 #000000;
#X obj 1436 174 bng 19 250 50 0 empty empty empty 0 -10 0 12 #fcfcfc #000000 #000000;
#X obj 1595 460 sel 0;
#X obj 1901 496 bng 19 250 50 0 signal_Bone1 empty empty 0 -10 0 12 #fcfcfc #000000 #000000;
#X obj 1516 240 cyclone/seq Buzzy_Down.mid;
#X obj 527 508 unpack;
#X floatatom 525 540 5 0 0 0 - - - 0;
#X floatatom 571 540 5 0 0 0 - - - 0;
#X obj 628 525 unpack;
#X floatatom 628 557 5 0 0 0 - - - 0;
#X floatatom 674 557 5 0 0 0 - - - 0;
#X obj 720 524 unpack;
#X floatatom 720 556 5 0 0 0 - - - 0;
#X floatatom 766 556 5 0 0 0 - - - 0;
#X floatatom 585 491 5 0 0 0 - - - 0;
#X floatatom 628 491 5 0 0 0 - - - 0;
#X floatatom 671 491 5 0 0 0 - - - 0;
#X floatatom 714 490 5 0 0 0 - - - 0;
#X obj 525 567 mtof;
#X obj 579 576 / 127;
#X obj 527 463 cyclone/midiparse;
#X msg 474 540 0;
#X obj 524 668 poly 2;
#X obj 524 694 pack 0 0 0;
#X obj 524 616 pack 0 0;
#X msg 570 407 stop;
#X obj 408 467 bng 19 250 50 0 empty empty empty 0 -10 0 12 #fcfcfc #000000 #000000;
#X obj 409 435 delay 112001;
#X obj 568 378 bng 19 250 50 0 empty stopbuttom empty 0 -10 0 12 #fcfcfc #000000 #000000;
#X obj 447 370 bng 19 250 50 0 empty empty empty 0 -10 0 12 #fcfcfc #000000 #000000;
#X obj 788 653 sel 0;
#X obj 818 682 bng 19 250 50 0 signal_Bone2 empty empty 0 -10 0 12 #fcfcfc #000000 #000000;
#X obj 527 436 cyclone/seq Buzzy_DDown.mid;
#X obj 214 963 netsend -u -b;
#X obj 235 918 packOSC;
#X msg 103 914 disconnect;
#X obj 308 753 bng 19 250 50 0 empty signal_Bone0 empty 0 -10 0 12 #fcfcfc #000000 #000000;
#X obj 308 799 bng 19 250 50 0 empty signal_Bone1 empty 0 -10 0 12 #fcfcfc #000000 #000000;
#X msg 308 777 send /bone 0;
#X msg 308 827 send /bone 1;
#X obj 311 855 bng 19 250 50 0 empty signal_Bone2 empty 0 -10 0 12 #fcfcfc #000000 #000000;
#X msg 311 883 send /bone 2;
#X obj 126 742 r connect_to_processing;
#X msg 659 668 0;
#X floatatom 662 700 5 0 0 0 - - - 0;
#X obj 642 750 expr if($f1>0 \, $f2+1 \, $f2);
#X msg 1192 483 0;
#X floatatom 1195 515 5 0 0 0 - - - 0;
#X obj 1174 543 expr if($f1>0 \, $f2+1 \, $f2);
#X msg 1682 481 0;
#X floatatom 1685 513 5 0 0 0 - - - 0;
#X obj 1657 544 expr if($f1>0 \, $f2+1 \, $f2);
#X floatatom 1069 699 5 0 0 0 - - - 0;
#X msg 1039 827 send /track/5/azim \$1;
#X obj 1039 902 netsend -u -b;
#X obj 1039 879 packOSC;
#X msg 864 804 connect localhost 4002;
#X obj 864 781 loadbang;
#X msg 998 772 -90;
#X obj 1038 772 float;
#X floatatom 1039 803 5 0 0 0 - - - 0;
#X msg 947 826 disconnect;
#X obj 1139 437 sel 0;
#X obj 1069 727 +;
#X obj 1041 603 bng 19 250 50 0 empty empty empty 0 -10 0 12 #fcfcfc #000000 #000000;
#X obj 1215 874 float;
#X floatatom 1216 905 5 0 0 0 - - - 0;
#X obj 1250 845 +;
#X msg 1216 929 send /track/5/elev \$1;
#X floatatom 1214 816 5 0 0 0 - - - 0;
#X msg 1175 874 0;
#X obj 1596 553 bng 19 250 50 0 empty empty empty 0 -10 0 12 #fcfcfc #000000 #000000;
#X obj 1213 720 expr if($f1<12 \, 0 \, if($f1==12 \, 60 \, if($f1<22 \, -6 \, if($f1<31 \, 6 \, if($f1==31 \, -60 \, if($f1<42 \, 0 \, if($f1==42 \, -60 \, if($f1<48 \, 12 \, if($f1<52 \, -15 \, if($f1==52 \, 60 \, if($f1<65 \, 0 \, if($f1==65 \, 60 \, if($f1<75 \, -6 \, if($f1<84 \, 6 \, if($f1==84 \, -60 \, if($f1<95 \, 0 \, if($f1==95 \, -60 \, if($f1<99 \, 20 \, if($f1<102 \, -20 \, if($f1==102 \, 60 \, 0))))))))))))))))))));
#X obj 1068 604 expr if($f1<6 \, 36 \, if($f1<12 \, -30 \, if($f1==12 \, 90 \, if($f1<31 \, 0 \, if($f1==31 \, 90 \, if($f1<=37 \, -30 \, if($f1<42 \, 45 \, if($f1==42 \, -90 \, if($f1<52 \, 0 \, if($f1==52 \, -90 \, if($f1<59 \, -30 \, if($f1<65 \, 30 \, if($f1==65 \, 90 \, if($f1<84 \, 0 \, if($f1==84 \, 90 \, if($f1<91 \, 30 \, if($f1<95 \, -45 \, 0)))))))))))))))));
#X floatatom 519 971 5 0 0 0 - - - 0;
#X msg 489 1099 send /track/5/azim \$1;
#X obj 488 1044 float;
#X floatatom 489 1075 5 0 0 0 - - - 0;
#X obj 519 999 +;
#X obj 491 875 bng 19 250 50 0 empty empty empty 0 -10 0 12 #fcfcfc #000000 #000000;
#X obj 665 1146 float;
#X floatatom 666 1177 5 0 0 0 - - - 0;
#X obj 700 1117 +;
#X msg 666 1201 send /track/5/elev \$1;
#X floatatom 664 1088 5 0 0 0 - - - 0;
#X msg 625 1146 0;
#X msg 453 1047 0;
#X obj 663 992 expr if($f1<5 \, 15 \, if($f1<12 \, -15 \, if($f1<17 \, 15 \, if($f1<22 \, -6 \, 0))));
#X obj 518 876 expr if($f1==0 \, -90 \, if($f1<5 \, 90 \, if($f1<12 \, -60 \, if($f1<17 \, -72 \, if($f1<22 \, 72 \, 0)))));
#X connect 0 0 1 0;
#X connect 0 1 2 0;
#X connect 1 0 13 0;
#X connect 2 0 14 0;
#X connect 3 0 4 0;
#X connect 3 1 5 0;
#X connect 6 0 7 0;
#X connect 6 1 8 0;
#X connect 13 0 21 0;
#X connect 14 0 21 1;
#X connect 15 0 0 0;
#X connect 15 0 64 0;
#X connect 15 1 3 0;
#X connect 15 2 6 0;
#X connect 15 3 9 0;
#X connect 15 4 10 0;
#X connect 15 5 11 0;
#X connect 15 6 12 0;
#X connect 16 0 20 1;
#X connect 16 0 22 1;
#X connect 16 0 1 0;
#X connect 16 0 2 0;
#X connect 17 0 18 0;
#X connect 17 1 18 1;
#X connect 17 2 18 2;
#X connect 18 0 19 0;
#X connect 19 0 29 0;
#X connect 19 1 30 0;
#X connect 19 2 23 0;
#X connect 20 0 35 0;
#X connect 21 0 17 0;
#X connect 22 0 35 0;
#X connect 24 0 16 0;
#X connect 24 0 66 0;
#X connect 25 0 26 0;
#X connect 26 0 20 0;
#X connect 27 0 28 0;
#X connect 28 0 22 0;
#X connect 29 0 25 0;
#X connect 29 1 20 1;
#X connect 30 0 27 0;
#X connect 30 1 22 1;
#X connect 31 0 16 0;
#X connect 32 0 31 0;
#X connect 33 0 24 0;
#X connect 34 0 32 0;
#X connect 34 0 37 0;
#X connect 34 0 66 0;
#X connect 34 0 61 0;
#X connect 34 0 65 0;
#X connect 34 0 90 0;
#X connect 34 0 95 0;
#X connect 34 0 123 0;
#X connect 34 0 118 0;
#X connect 34 0 134 0;
#X connect 34 0 140 0;
#X connect 34 0 149 0;
#X connect 34 0 137 0;
#X connect 34 0 161 0;
#X connect 34 0 176 0;
#X connect 34 0 177 0;
#X connect 35 0 38 0;
#X connect 36 0 32 0;
#X connect 36 0 37 0;
#X connect 36 0 66 0;
#X connect 37 0 35 1;
#X connect 39 0 40 0;
#X connect 39 1 41 0;
#X connect 40 0 52 0;
#X connect 41 0 53 0;
#X connect 41 0 153 0;
#X connect 42 0 43 0;
#X connect 42 1 44 0;
#X connect 45 0 46 0;
#X connect 45 1 47 0;
#X connect 52 0 58 0;
#X connect 53 0 58 1;
#X connect 54 0 39 0;
#X connect 54 1 42 0;
#X connect 54 2 45 0;
#X connect 54 3 48 0;
#X connect 54 4 49 0;
#X connect 54 5 50 0;
#X connect 54 6 51 0;
#X connect 55 0 40 0;
#X connect 55 0 41 0;
#X connect 56 0 57 0;
#X connect 56 1 57 1;
#X connect 56 2 57 2;
#X connect 58 0 56 0;
#X connect 59 0 55 0;
#X connect 59 0 65 0;
#X connect 60 0 55 0;
#X connect 61 0 60 0;
#X connect 62 0 59 0;
#X connect 63 0 61 0;
#X connect 63 0 65 0;
#X connect 65 0 54 0;
#X connect 66 0 15 0;
#X connect 68 0 69 0;
#X connect 68 1 70 0;
#X connect 69 0 81 0;
#X connect 70 0 82 0;
#X connect 70 0 93 0;
#X connect 71 0 72 0;
#X connect 71 1 73 0;
#X connect 74 0 75 0;
#X connect 74 1 76 0;
#X connect 81 0 87 0;
#X connect 82 0 87 1;
#X connect 83 0 68 0;
#X connect 83 1 71 0;
#X connect 83 2 74 0;
#X connect 83 3 77 0;
#X connect 83 4 78 0;
#X connect 83 5 79 0;
#X connect 83 6 80 0;
#X connect 84 0 69 0;
#X connect 84 0 70 0;
#X connect 85 0 86 0;
#X connect 85 1 86 1;
#X connect 85 2 86 2;
#X connect 87 0 85 0;
#X connect 88 0 84 0;
#X connect 88 0 95 0;
#X connect 89 0 84 0;
#X connect 90 0 89 0;
#X connect 91 0 88 0;
#X connect 92 0 90 0;
#X connect 92 0 95 0;
#X connect 93 0 142 0;
#X connect 93 0 162 0;
#X connect 93 1 94 0;
#X connect 95 0 83 0;
#X connect 96 0 97 0;
#X connect 96 1 98 0;
#X connect 97 0 109 0;
#X connect 98 0 110 0;
#X connect 98 0 121 0;
#X connect 99 0 100 0;
#X connect 99 1 101 0;
#X connect 102 0 103 0;
#X connect 102 1 104 0;
#X connect 109 0 115 0;
#X connect 110 0 115 1;
#X connect 111 0 96 0;
#X connect 111 1 99 0;
#X connect 111 2 102 0;
#X connect 111 3 105 0;
#X connect 111 4 106 0;
#X connect 111 5 107 0;
#X connect 111 6 108 0;
#X connect 112 0 97 0;
#X connect 112 0 98 0;
#X connect 113 0 114 0;
#X connect 113 1 114 1;
#X connect 113 2 114 2;
#X connect 115 0 113 0;
#X connect 116 0 112 0;
#X connect 116 0 123 0;
#X connect 117 0 112 0;
#X connect 118 0 117 0;
#X connect 119 0 116 0;
#X connect 120 0 118 0;
#X connect 120 0 123 0;
#X connect 121 1 122 0;
#X connect 121 1 136 0;
#X connect 121 1 170 0;
#X connect 123 0 111 0;
#X connect 125 0 124 0;
#X connect 126 0 124 0;
#X connect 127 0 129 0;
#X connect 128 0 130 0;
#X connect 129 0 125 0;
#X connect 130 0 125 0;
#X connect 131 0 132 0;
#X connect 132 0 125 0;
#X connect 133 0 124 0;
#X connect 134 0 135 0;
#X connect 135 0 136 1;
#X connect 136 0 135 0;
#X connect 136 0 178 0;
#X connect 136 0 179 0;
#X connect 137 0 138 0;
#X connect 138 0 139 1;
#X connect 139 0 138 0;
#X connect 139 0 163 0;
#X connect 139 0 164 0;
#X connect 140 0 141 0;
#X connect 141 0 142 1;
#X connect 142 0 141 0;
#X connect 143 0 154 1;
#X connect 144 0 146 0;
#X connect 146 0 145 0;
#X connect 147 0 145 0;
#X connect 148 0 147 0;
#X connect 149 0 150 0;
#X connect 150 0 151 0;
#X connect 150 0 154 0;
#X connect 151 0 144 0;
#X connect 152 0 145 0;
#X connect 153 1 139 0;
#X connect 153 1 155 0;
#X connect 153 1 67 0;
#X connect 154 0 150 1;
#X connect 155 0 150 0;
#X connect 155 0 156 0;
#X connect 156 0 157 0;
#X connect 156 0 158 0;
#X connect 157 0 159 0;
#X connect 158 0 156 1;
#X connect 159 0 146 0;
#X connect 160 0 158 1;
#X connect 161 0 156 0;
#X connect 163 0 160 0;
#X connect 164 0 143 0;
#X connect 165 0 169 1;
#X connect 166 0 146 0;
#X connect 167 0 168 0;
#X connect 167 0 169 0;
#X connect 168 0 166 0;
#X connect 169 0 167 1;
#X connect 170 0 167 0;
#X connect 170 0 171 0;
#X connect 171 0 172 0;
#X connect 171 0 173 0;
#X connect 172 0 174 0;
#X connect 173 0 171 1;
#X connect 174 0 146 0;
#X connect 175 0 173 1;
#X connect 176 0 171 0;
#X connect 177 0 167 0;
#X connect 178 0 175 0;
#X connect 179 0 165 0;
