#N canvas 1 38 1422 857 12;
#X obj 228 226 unpack;
#X floatatom 226 258 5 0 0 0 - - - 0;
#X floatatom 272 258 5 0 0 0 - - - 0;
#X obj 329 243 unpack;
#X floatatom 329 275 5 0 0 0 - - - 0;
#X floatatom 375 275 5 0 0 0 - - - 0;
#X obj 421 242 unpack;
#X floatatom 421 274 5 0 0 0 - - - 0;
#X floatatom 467 274 5 0 0 0 - - - 0;
#X floatatom 286 209 5 0 0 0 - - - 0;
#X floatatom 329 209 5 0 0 0 - - - 0;
#X floatatom 372 209 5 0 0 0 - - - 0;
#X floatatom 415 208 5 0 0 0 - - - 0;
#X obj 226 285 mtof;
#X obj 280 294 / 127;
#X obj 228 181 cyclone/midiparse;
#X msg 175 258 0;
#X obj 225 386 poly 2;
#X obj 225 412 pack 0 0 0;
#X obj 225 438 route 1 2;
#X obj 212 592 *~;
#X obj 225 334 pack 0 0;
#X obj 251 593 *~;
#X floatatom 285 462 5 0 0 0 - - - 0;
#X msg 271 125 stop;
#X obj 189 519 osc~;
#X obj 188 544 *~ 0.4;
#X obj 253 520 osc~;
#X obj 252 545 *~ 0.4;
#X obj 189 494 unpack;
#X obj 253 494 unpack;
#X obj 109 185 bng 19 250 50 0 empty empty empty 0 -10 0 12 #fcfcfc #000000 #000000;
#X obj 110 153 delay 112001;
#X obj 269 96 bng 19 250 50 0 empty stopbuttom empty 0 -10 0 12 #fcfcfc #000000 #000000;
#X obj 201 101 inlet;
#X obj 230 628 *~;
#X obj 148 88 bng 19 250 50 0 empty empty empty 0 -10 0 12 #fcfcfc #000000 #000000;
#X msg 299 592 0.9;
#X obj 226 655 outlet~;
#X obj 781 297 unpack;
#X floatatom 779 329 5 0 0 0 - - - 0;
#X floatatom 825 329 5 0 0 0 - - - 0;
#X obj 882 314 unpack;
#X floatatom 882 346 5 0 0 0 - - - 0;
#X floatatom 928 346 5 0 0 0 - - - 0;
#X obj 974 313 unpack;
#X floatatom 974 345 5 0 0 0 - - - 0;
#X floatatom 1020 345 5 0 0 0 - - - 0;
#X floatatom 839 280 5 0 0 0 - - - 0;
#X floatatom 882 280 5 0 0 0 - - - 0;
#X floatatom 925 280 5 0 0 0 - - - 0;
#X floatatom 968 279 5 0 0 0 - - - 0;
#X obj 779 356 mtof;
#X obj 833 365 / 127;
#X obj 781 252 cyclone/midiparse;
#X msg 728 329 0;
#X obj 778 457 poly 2;
#X obj 778 483 pack 0 0 0;
#X obj 778 405 pack 0 0;
#X msg 824 196 stop;
#X obj 662 256 bng 19 250 50 0 empty empty empty 0 -10 0 12 #fcfcfc #000000 #000000;
#X obj 663 224 delay 112001;
#X obj 822 167 bng 19 250 50 0 empty stopbuttom empty 0 -10 0 12 #fcfcfc #000000 #000000;
#X obj 701 159 bng 19 250 50 0 empty empty empty 0 -10 0 12 #fcfcfc #000000 #000000;
#X obj 104 258 bng 19 250 50 0 empty empty empty 0 -10 0 12 #fcfcfc #000000 #000000;
#X obj 781 225 cyclone/seq Buzzy_Up.mid;
#X obj 228 154 cyclone/seq Buzzy_.mid;
#X obj 1042 442 sel 0;
#X obj 1072 471 bng 19 250 50 0 signal_Bone0 empty empty 0 -10 0 12 #fcfcfc #000000 #000000;
#X obj 1247 298 unpack;
#X floatatom 1245 330 5 0 0 0 - - - 0;
#X floatatom 1291 330 5 0 0 0 - - - 0;
#X obj 1348 315 unpack;
#X floatatom 1348 347 5 0 0 0 - - - 0;
#X floatatom 1394 347 5 0 0 0 - - - 0;
#X obj 1440 314 unpack;
#X floatatom 1440 346 5 0 0 0 - - - 0;
#X floatatom 1486 346 5 0 0 0 - - - 0;
#X floatatom 1305 281 5 0 0 0 - - - 0;
#X floatatom 1348 281 5 0 0 0 - - - 0;
#X floatatom 1391 281 5 0 0 0 - - - 0;
#X floatatom 1434 280 5 0 0 0 - - - 0;
#X obj 1245 357 mtof;
#X obj 1299 366 / 127;
#X obj 1247 253 cyclone/midiparse;
#X msg 1194 330 0;
#X obj 1244 458 poly 2;
#X obj 1244 484 pack 0 0 0;
#X obj 1244 406 pack 0 0;
#X msg 1290 197 stop;
#X obj 1128 257 bng 19 250 50 0 empty empty empty 0 -10 0 12 #fcfcfc #000000 #000000;
#X obj 1129 225 delay 112001;
#X obj 1288 168 bng 19 250 50 0 empty stopbuttom empty 0 -10 0 12 #fcfcfc #000000 #000000;
#X obj 1167 160 bng 19 250 50 0 empty empty empty 0 -10 0 12 #fcfcfc #000000 #000000;
#X obj 1508 443 sel 0;
#X obj 1538 472 bng 19 250 50 0 signal_Bone1 empty empty 0 -10 0 12 #fcfcfc #000000 #000000;
#X obj 1247 226 cyclone/seq Buzzy_Down.mid;
#X obj 854 764 unpack;
#X floatatom 852 796 5 0 0 0 - - - 0;
#X floatatom 898 796 5 0 0 0 - - - 0;
#X obj 955 781 unpack;
#X floatatom 955 813 5 0 0 0 - - - 0;
#X floatatom 1001 813 5 0 0 0 - - - 0;
#X obj 1047 780 unpack;
#X floatatom 1047 812 5 0 0 0 - - - 0;
#X floatatom 1093 812 5 0 0 0 - - - 0;
#X floatatom 912 747 5 0 0 0 - - - 0;
#X floatatom 955 747 5 0 0 0 - - - 0;
#X floatatom 998 747 5 0 0 0 - - - 0;
#X floatatom 1041 746 5 0 0 0 - - - 0;
#X obj 852 823 mtof;
#X obj 906 832 / 127;
#X obj 854 719 cyclone/midiparse;
#X msg 801 796 0;
#X obj 851 924 poly 2;
#X obj 851 950 pack 0 0 0;
#X obj 851 872 pack 0 0;
#X msg 897 663 stop;
#X obj 735 723 bng 19 250 50 0 empty empty empty 0 -10 0 12 #fcfcfc #000000 #000000;
#X obj 736 691 delay 112001;
#X obj 895 634 bng 19 250 50 0 empty stopbuttom empty 0 -10 0 12 #fcfcfc #000000 #000000;
#X obj 774 626 bng 19 250 50 0 empty empty empty 0 -10 0 12 #fcfcfc #000000 #000000;
#X obj 1115 909 sel 0;
#X obj 1145 938 bng 19 250 50 0 signal_Bone2 empty empty 0 -10 0 12 #fcfcfc #000000 #000000;
#X obj 854 692 cyclone/seq Buzzy_DDown.mid;
#X connect 0 0 1 0;
#X connect 0 1 2 0;
#X connect 1 0 13 0;
#X connect 2 0 14 0;
#X connect 3 0 4 0;
#X connect 3 1 5 0;
#X connect 6 0 7 0;
#X connect 6 1 8 0;
#X connect 13 0 21 0;
#X connect 14 0 21 1;
#X connect 15 0 0 0;
#X connect 15 0 64 0;
#X connect 15 1 3 0;
#X connect 15 2 6 0;
#X connect 15 3 9 0;
#X connect 15 4 10 0;
#X connect 15 5 11 0;
#X connect 15 6 12 0;
#X connect 16 0 20 1;
#X connect 16 0 22 1;
#X connect 16 0 1 0;
#X connect 16 0 2 0;
#X connect 17 0 18 0;
#X connect 17 1 18 1;
#X connect 17 2 18 2;
#X connect 18 0 19 0;
#X connect 19 0 29 0;
#X connect 19 1 30 0;
#X connect 19 2 23 0;
#X connect 20 0 35 0;
#X connect 21 0 17 0;
#X connect 22 0 35 0;
#X connect 24 0 16 0;
#X connect 24 0 66 0;
#X connect 25 0 26 0;
#X connect 26 0 20 0;
#X connect 27 0 28 0;
#X connect 28 0 22 0;
#X connect 29 0 25 0;
#X connect 29 1 20 1;
#X connect 30 0 27 0;
#X connect 30 1 22 1;
#X connect 31 0 16 0;
#X connect 32 0 31 0;
#X connect 33 0 24 0;
#X connect 34 0 32 0;
#X connect 34 0 37 0;
#X connect 34 0 66 0;
#X connect 34 0 61 0;
#X connect 34 0 65 0;
#X connect 34 0 91 0;
#X connect 34 0 96 0;
#X connect 34 0 124 0;
#X connect 34 0 119 0;
#X connect 35 0 38 0;
#X connect 36 0 32 0;
#X connect 36 0 37 0;
#X connect 36 0 66 0;
#X connect 37 0 35 1;
#X connect 39 0 40 0;
#X connect 39 1 41 0;
#X connect 40 0 52 0;
#X connect 41 0 53 0;
#X connect 41 0 67 0;
#X connect 42 0 43 0;
#X connect 42 1 44 0;
#X connect 45 0 46 0;
#X connect 45 1 47 0;
#X connect 52 0 58 0;
#X connect 53 0 58 1;
#X connect 54 0 39 0;
#X connect 54 1 42 0;
#X connect 54 2 45 0;
#X connect 54 3 48 0;
#X connect 54 4 49 0;
#X connect 54 5 50 0;
#X connect 54 6 51 0;
#X connect 55 0 40 0;
#X connect 55 0 41 0;
#X connect 56 0 57 0;
#X connect 56 1 57 1;
#X connect 56 2 57 2;
#X connect 58 0 56 0;
#X connect 59 0 55 0;
#X connect 59 0 65 0;
#X connect 60 0 55 0;
#X connect 61 0 60 0;
#X connect 62 0 59 0;
#X connect 63 0 61 0;
#X connect 63 0 65 0;
#X connect 65 0 54 0;
#X connect 66 0 15 0;
#X connect 67 1 68 0;
#X connect 69 0 70 0;
#X connect 69 1 71 0;
#X connect 70 0 82 0;
#X connect 71 0 83 0;
#X connect 71 0 94 0;
#X connect 72 0 73 0;
#X connect 72 1 74 0;
#X connect 75 0 76 0;
#X connect 75 1 77 0;
#X connect 82 0 88 0;
#X connect 83 0 88 1;
#X connect 84 0 69 0;
#X connect 84 1 72 0;
#X connect 84 2 75 0;
#X connect 84 3 78 0;
#X connect 84 4 79 0;
#X connect 84 5 80 0;
#X connect 84 6 81 0;
#X connect 85 0 70 0;
#X connect 85 0 71 0;
#X connect 86 0 87 0;
#X connect 86 1 87 1;
#X connect 86 2 87 2;
#X connect 88 0 86 0;
#X connect 89 0 85 0;
#X connect 89 0 96 0;
#X connect 90 0 85 0;
#X connect 91 0 90 0;
#X connect 92 0 89 0;
#X connect 93 0 91 0;
#X connect 93 0 96 0;
#X connect 94 1 95 0;
#X connect 96 0 84 0;
#X connect 97 0 98 0;
#X connect 97 1 99 0;
#X connect 98 0 110 0;
#X connect 99 0 111 0;
#X connect 99 0 122 0;
#X connect 100 0 101 0;
#X connect 100 1 102 0;
#X connect 103 0 104 0;
#X connect 103 1 105 0;
#X connect 110 0 116 0;
#X connect 111 0 116 1;
#X connect 112 0 97 0;
#X connect 112 1 100 0;
#X connect 112 2 103 0;
#X connect 112 3 106 0;
#X connect 112 4 107 0;
#X connect 112 5 108 0;
#X connect 112 6 109 0;
#X connect 113 0 98 0;
#X connect 113 0 99 0;
#X connect 114 0 115 0;
#X connect 114 1 115 1;
#X connect 114 2 115 2;
#X connect 116 0 114 0;
#X connect 117 0 113 0;
#X connect 117 0 124 0;
#X connect 118 0 113 0;
#X connect 119 0 118 0;
#X connect 120 0 117 0;
#X connect 121 0 119 0;
#X connect 121 0 124 0;
#X connect 122 1 123 0;
#X connect 124 0 112 0;
