#N canvas 665 120 1280 699 12;
#X obj 108 82 bng 19 250 50 0 empty empty empty 0 -10 0 12 #fcfcfc #000000 #000000;
#X obj 87 192 unpack;
#X floatatom 85 224 5 0 0 0 - - - 0;
#X floatatom 131 224 5 0 0 0 - - - 0;
#X obj 184 193 unpack;
#X floatatom 182 225 5 0 0 0 - - - 0;
#X floatatom 228 225 5 0 0 0 - - - 0;
#X obj 280 271 unpack;
#X floatatom 278 303 5 0 0 0 - - - 0;
#X floatatom 324 303 5 0 0 0 - - - 0;
#X floatatom 304 249 5 0 0 0 - - - 0;
#X floatatom 356 249 5 0 0 0 - - - 0;
#X floatatom 372 220 5 0 0 0 - - - 0;
#X floatatom 372 188 5 0 0 0 - - - 0;
#X obj 85 251 mtof;
#X floatatom 85 275 5 0 0 0 - - - 0;
#X obj 139 260 / 127;
#N canvas 61 93 1219 590 electric_guitar 0;
#X obj 252 32 inlet;
#X obj 251 103 t b f;
#X obj 221 151 phasor~;
#X floatatom 303 163 5 0 0 0 - - - 0;
#X obj 303 198 phasor~;
#X obj 377 366 *~;
#X obj 363 538 outlet~;
#X obj 470 323 line~;
#X obj 384 199 loadbang;
#X floatatom 385 273 5 0 0 0 - - - 0;
#X obj 670 63 loadbang;
#X obj 741 63 loadbang;
#X obj 846 63 loadbang;
#X obj 519 45 bng 19 250 50 0 empty empty empty 0 -10 0 12 #fcfcfc #000000 #000000;
#X obj 519 164 int;
#X floatatom 566 116 5 0 0 0 - - - 0;
#X msg 821 100 10;
#X floatatom 820 162 5 0 0 0 - - - 0;
#X obj 764 196 int;
#X msg 714 255 0 \$1;
#X obj 782 108 bng 19 250 50 0 empty empty empty 0 -10 0 12 #fcfcfc #000000 #000000;
#X obj 566 162 delay;
#X obj 603 194 int;
#X obj 754 139 loadbang;
#X floatatom 699 198 5 0 0 0 - - - 0;
#X floatatom 691 150 5 0 0 0 - - - 0;
#X obj 614 245 pack 0 0;
#X msg 569 271 \$2 \$1;
#X obj 531 207 0 \, 1 \$1;
#X obj 458 200 loadbang;
#X floatatom 438 273 5 0 0 0 - - - 0;
#X obj 271 299 vcf~ 800 5;
#X msg 732 170 5;
#X obj 303 241 *~ 1;
#X msg 668 99 20;
#X msg 728 99 100;
#X obj 626 376 hsl 162 19 0 1 0 0 empty empty empty -2 -10 0 12 #fcfcfc #000000 #000000 0 1;
#X obj 676 295 loadbang;
#X obj 75 214 loadbang;
#X floatatom 100 289 5 0 0 0 - - - 0;
#X obj 141 209 loadbang;
#X floatatom 153 289 5 0 0 0 - - - 0;
#X obj 176 336 vcf~ 800 5;
#X msg 385 237 250;
#X msg 438 237 10;
#X obj -187 81 noise~;
#X obj -120 63 bng 19 250 50 0 empty empty empty 0 -10 0 12 #fcfcfc #000000 #000000;
#X obj -120 87 t b b;
#X msg -120 135 0;
#X msg -67 134 1;
#X obj -118 171 tgl 19 0 empty empty empty 0 -10 0 12 #fcfcfc #000000 #000000 0 1;
#X obj -10 190 delread4~ del;
#X floatatom 20 162 5 0 0 0 - - - 0;
#X obj -135 238 *~;
#X obj -120 111 del 20;
#X obj 251 428 +~;
#X msg 100 253 1600;
#X obj -10 228 *~ 0.999;
#X obj 30 133 expr 1000 / $f1;
#X obj -90 358 delwrite~ del 500;
#X obj -103 282 *~ 0.7;
#X obj 221 194 *~ 0.3;
#X obj 142 383 *~ 0.5;
#X obj 16 294 lop~ 4500;
#X msg 153 253 20;
#X obj 355 463 *~;
#X msg 673 328 0.3;
#X obj 583 64 delay 100;
#X obj 407 33 inlet;
#X msg 411 124 0;
#X msg -65 233 0.7;
#X connect 0 0 1 0;
#X connect 0 0 70 0;
#X connect 1 0 13 0;
#X connect 1 0 46 0;
#X connect 1 1 2 0;
#X connect 1 1 3 0;
#X connect 1 1 58 0;
#X connect 2 0 61 0;
#X connect 3 0 4 0;
#X connect 4 0 33 0;
#X connect 5 0 55 1;
#X connect 7 0 5 1;
#X connect 8 0 43 0;
#X connect 9 0 31 1;
#X connect 10 0 34 0;
#X connect 11 0 35 0;
#X connect 12 0 16 0;
#X connect 13 0 21 0;
#X connect 13 0 14 0;
#X connect 13 0 67 0;
#X connect 14 0 28 0;
#X connect 15 0 14 1;
#X connect 15 0 21 1;
#X connect 16 0 17 0;
#X connect 17 0 18 1;
#X connect 18 0 19 0;
#X connect 19 0 7 0;
#X connect 20 0 18 0;
#X connect 21 0 22 0;
#X connect 22 0 26 0;
#X connect 23 0 32 0;
#X connect 24 0 26 1;
#X connect 25 0 22 1;
#X connect 26 0 27 0;
#X connect 27 0 7 0;
#X connect 28 0 7 0;
#X connect 29 0 44 0;
#X connect 30 0 31 2;
#X connect 31 0 5 0;
#X connect 32 0 24 0;
#X connect 33 0 31 0;
#X connect 33 0 42 0;
#X connect 34 0 15 0;
#X connect 35 0 25 0;
#X connect 36 0 65 1;
#X connect 37 0 66 0;
#X connect 38 0 56 0;
#X connect 39 0 42 1;
#X connect 40 0 64 0;
#X connect 41 0 42 2;
#X connect 42 0 5 0;
#X connect 43 0 9 0;
#X connect 44 0 30 0;
#X connect 45 0 53 0;
#X connect 46 0 47 0;
#X connect 47 0 54 0;
#X connect 47 1 49 0;
#X connect 48 0 50 0;
#X connect 49 0 50 0;
#X connect 50 0 53 1;
#X connect 51 0 57 0;
#X connect 52 0 51 0;
#X connect 53 0 60 0;
#X connect 54 0 48 0;
#X connect 55 0 65 0;
#X connect 56 0 39 0;
#X connect 57 0 63 0;
#X connect 58 0 52 0;
#X connect 60 0 59 0;
#X connect 61 0 31 0;
#X connect 61 0 42 0;
#X connect 62 0 55 0;
#X connect 63 0 59 0;
#X connect 63 0 62 0;
#X connect 64 0 41 0;
#X connect 65 0 6 0;
#X connect 66 0 36 0;
#X connect 67 0 20 0;
#X connect 68 0 69 0;
#X connect 69 0 60 1;
#X connect 69 0 3 0;
#X connect 69 0 52 0;
#X connect 70 0 60 1;
#X restore 151 362 pd electric_guitar;
#X obj 108 51 inlet;
#X msg 164 49 stop;
#X obj 161 14 bng 19 250 50 0 empty stopbuttom empty 0 -10 0 12 #fcfcfc #000000 #000000;
#X obj 109 122 cyclone/seq Electric_Guitar_.mid;
#X obj 210 154 cyclone/midiparse;
#X obj 151 400 *~ 0.5;
#X obj 140 439 outlet~;
#X connect 0 0 21 0;
#X connect 1 0 2 0;
#X connect 1 1 3 0;
#X connect 2 0 14 0;
#X connect 3 0 16 0;
#X connect 4 0 5 0;
#X connect 4 1 6 0;
#X connect 7 0 8 0;
#X connect 7 1 9 0;
#X connect 14 0 15 0;
#X connect 14 0 17 0;
#X connect 17 0 23 0;
#X connect 18 0 0 0;
#X connect 19 0 21 0;
#X connect 19 0 17 1;
#X connect 20 0 19 0;
#X connect 21 0 22 0;
#X connect 22 0 1 0;
#X connect 22 1 4 0;
#X connect 22 2 7 0;
#X connect 22 3 10 0;
#X connect 22 4 11 0;
#X connect 22 5 12 0;
#X connect 22 6 13 0;
#X connect 23 0 24 0;
