#N canvas 131 289 1561 726 12;
#X obj 180 65 inlet;
#X obj 180 88 sel 0;
#X msg 180 111 0;
#X obj 50 154 tabread4~ \$1;
#X obj 50 131 *~ 2293;
#X obj 50 108 phasor~ 19.23;
#X obj 152 184 *~ 0;
#X obj 152 247 outlet~;
#X obj 136 11 r stop_readtab;
#X obj 136 34 bng 19 250 50 0 empty empty empty 0 -10 0 12 #fcfcfc #000000 #000000;
#X msg 136 58 0;
#X obj 152 215 *~;
#X msg 220 111 1;
#X obj 285 131 delay 200;
#X msg 285 154 0;
#X obj 285 109 bng 19 250 50 0 empty empty empty 0 -10 0 12 #fcfcfc #000000 #000000;
#X obj 220 182 adsr 10 50 0.9 200;
#X connect 0 0 1 0;
#X connect 1 0 2 0;
#X connect 1 1 6 1;
#X connect 1 1 12 0;
#X connect 2 0 6 1;
#X connect 2 0 16 0;
#X connect 3 0 6 0;
#X connect 4 0 3 0;
#X connect 5 0 4 0;
#X connect 6 0 11 0;
#X connect 8 0 9 0;
#X connect 9 0 10 0;
#X connect 10 0 6 1;
#X connect 11 0 7 0;
#X connect 12 0 15 0;
#X connect 12 0 16 0;
#X connect 13 0 14 0;
#X connect 14 0 16 0;
#X connect 15 0 13 0;
#X connect 16 0 11 1;
