#N canvas 482 100 1280 675 12;
#X msg 150 45 stop;
#X obj 86 154 unpack;
#X floatatom 84 186 5 0 0 0 - - - 0;
#X floatatom 130 186 5 0 0 0 - - - 0;
#X obj 183 155 unpack;
#X floatatom 181 187 5 0 0 0 - - - 0;
#X floatatom 227 187 5 0 0 0 - - - 0;
#X obj 279 233 unpack;
#X floatatom 277 265 5 0 0 0 - - - 0;
#X floatatom 323 265 5 0 0 0 - - - 0;
#X floatatom 303 211 5 0 0 0 - - - 0;
#X floatatom 355 211 5 0 0 0 - - - 0;
#X floatatom 371 182 5 0 0 0 - - - 0;
#X floatatom 371 150 5 0 0 0 - - - 0;
#X obj 84 213 mtof;
#X floatatom 84 237 5 0 0 0 - - - 0;
#X obj 138 222 / 127;
#X msg 195 226 0;
#X obj 108 84 cyclone/seq Rock_Organ_.mid;
#X obj 94 270 pack 0 0;
#X obj 97 307 poly 4;
#X obj 93 347 pack 0 0 0;
#X obj 63 417 unpack 0 0;
#X obj 142 419 unpack 0 0;
#X obj 222 418 unpack 0 0;
#X obj 308 418 unpack 0 0;
#N canvas 72 198 1176 515 rock_organ 0;
#X obj 51 30 inlet;
#X obj 47 188 osc~;
#X obj 88 157 * 1.015;
#X obj 88 188 osc~;
#X obj 146 188 osc~;
#X obj 203 187 osc~;
#X obj 262 186 osc~;
#X obj 146 157 * 0.503;
#X obj 203 156 * 1.496;
#X obj 262 155 * 2.01;
#X obj 738 368 hsl 162 19 0 1 0 0 empty empty empty -2 -10 0 12 #fcfcfc #000000 #000000 0 1;
#X floatatom 124 56 5 0 0 0 - - - 0;
#X obj 494 451 outlet~;
#X obj 327 186 osc~;
#X obj 368 155 * 1.015;
#X obj 368 186 osc~;
#X obj 426 186 osc~;
#X obj 483 185 osc~;
#X obj 542 184 osc~;
#X obj 426 155 * 0.503;
#X obj 483 154 * 1.496;
#X obj 542 153 * 2.01;
#X obj 595 184 osc~;
#X obj 636 153 * 1.015;
#X obj 636 184 osc~;
#X obj 694 184 osc~;
#X obj 751 183 osc~;
#X obj 810 182 osc~;
#X obj 694 153 * 0.503;
#X obj 751 152 * 1.496;
#X obj 810 151 * 2.01;
#X obj 674 91 * 0.5;
#X obj 497 387 *~;
#X obj 372 303 +~;
#X obj 535 277 osc~ 5;
#X obj 535 307 *~ 50;
#X obj 441 90 * 2;
#X obj 934 319 loadbang;
#X obj 526 414 *~;
#X msg 849 321 0.005;
#X obj 876 268 adsr 40 200 0.8 50;
#X obj 876 39 inlet;
#X connect 0 0 1 0;
#X connect 0 0 2 0;
#X connect 0 0 7 0;
#X connect 0 0 8 0;
#X connect 0 0 9 0;
#X connect 0 0 11 0;
#X connect 0 0 31 0;
#X connect 0 0 36 0;
#X connect 1 0 33 0;
#X connect 2 0 3 0;
#X connect 3 0 33 0;
#X connect 4 0 33 0;
#X connect 5 0 33 0;
#X connect 6 0 33 0;
#X connect 7 0 4 0;
#X connect 8 0 5 0;
#X connect 9 0 6 0;
#X connect 10 0 38 1;
#X connect 13 0 33 0;
#X connect 14 0 15 0;
#X connect 15 0 33 0;
#X connect 16 0 33 0;
#X connect 17 0 33 0;
#X connect 18 0 33 0;
#X connect 19 0 16 0;
#X connect 20 0 17 0;
#X connect 21 0 18 0;
#X connect 22 0 33 0;
#X connect 23 0 24 0;
#X connect 24 0 33 0;
#X connect 25 0 33 0;
#X connect 26 0 33 0;
#X connect 27 0 33 0;
#X connect 28 0 25 0;
#X connect 29 0 26 0;
#X connect 30 0 27 0;
#X connect 31 0 23 0;
#X connect 31 0 28 0;
#X connect 31 0 29 0;
#X connect 31 0 30 0;
#X connect 31 0 22 0;
#X connect 32 0 38 0;
#X connect 33 0 32 0;
#X connect 34 0 35 0;
#X connect 35 0 33 1;
#X connect 36 0 14 0;
#X connect 36 0 13 0;
#X connect 36 0 19 0;
#X connect 36 0 20 0;
#X connect 36 0 21 0;
#X connect 37 0 39 0;
#X connect 38 0 12 0;
#X connect 39 0 10 0;
#X connect 40 0 32 1;
#X connect 41 0 40 0;
#X restore 46 466 pd rock_organ;
#N canvas 72 198 1176 515 rock_organ 0;
#X obj 51 30 inlet;
#X obj 47 188 osc~;
#X obj 88 157 * 1.015;
#X obj 88 188 osc~;
#X obj 146 188 osc~;
#X obj 203 187 osc~;
#X obj 262 186 osc~;
#X obj 146 157 * 0.503;
#X obj 203 156 * 1.496;
#X obj 262 155 * 2.01;
#X obj 716 366 hsl 162 19 0 1 0 0 empty empty empty -2 -10 0 12 #fcfcfc #000000 #000000 0 1;
#X floatatom 124 56 5 0 0 0 - - - 0;
#X obj 494 451 outlet~;
#X obj 327 186 osc~;
#X obj 368 155 * 1.015;
#X obj 368 186 osc~;
#X obj 426 186 osc~;
#X obj 483 185 osc~;
#X obj 542 184 osc~;
#X obj 426 155 * 0.503;
#X obj 483 154 * 1.496;
#X obj 542 153 * 2.01;
#X obj 595 184 osc~;
#X obj 636 153 * 1.015;
#X obj 636 184 osc~;
#X obj 694 184 osc~;
#X obj 751 183 osc~;
#X obj 810 182 osc~;
#X obj 694 153 * 0.503;
#X obj 751 152 * 1.496;
#X obj 810 151 * 2.01;
#X obj 674 91 * 0.5;
#X obj 497 387 *~;
#X obj 372 303 +~;
#X obj 535 277 osc~ 5;
#X obj 535 307 *~ 50;
#X obj 441 90 * 2;
#X obj 934 319 loadbang;
#X obj 531 410 *~;
#X msg 849 321 0.005;
#X obj 876 268 adsr 40 200 0.8 50;
#X obj 876 39 inlet;
#X connect 0 0 1 0;
#X connect 0 0 2 0;
#X connect 0 0 7 0;
#X connect 0 0 8 0;
#X connect 0 0 9 0;
#X connect 0 0 11 0;
#X connect 0 0 31 0;
#X connect 0 0 36 0;
#X connect 1 0 33 0;
#X connect 2 0 3 0;
#X connect 3 0 33 0;
#X connect 4 0 33 0;
#X connect 5 0 33 0;
#X connect 6 0 33 0;
#X connect 7 0 4 0;
#X connect 8 0 5 0;
#X connect 9 0 6 0;
#X connect 10 0 38 1;
#X connect 13 0 33 0;
#X connect 14 0 15 0;
#X connect 15 0 33 0;
#X connect 16 0 33 0;
#X connect 17 0 33 0;
#X connect 18 0 33 0;
#X connect 19 0 16 0;
#X connect 20 0 17 0;
#X connect 21 0 18 0;
#X connect 22 0 33 0;
#X connect 23 0 24 0;
#X connect 24 0 33 0;
#X connect 25 0 33 0;
#X connect 26 0 33 0;
#X connect 27 0 33 0;
#X connect 28 0 25 0;
#X connect 29 0 26 0;
#X connect 30 0 27 0;
#X connect 31 0 23 0;
#X connect 31 0 28 0;
#X connect 31 0 29 0;
#X connect 31 0 30 0;
#X connect 31 0 22 0;
#X connect 32 0 38 0;
#X connect 33 0 32 0;
#X connect 34 0 35 0;
#X connect 35 0 33 1;
#X connect 36 0 14 0;
#X connect 36 0 13 0;
#X connect 36 0 19 0;
#X connect 36 0 20 0;
#X connect 36 0 21 0;
#X connect 37 0 39 0;
#X connect 38 0 12 0;
#X connect 39 0 10 0;
#X connect 40 0 32 1;
#X connect 41 0 40 0;
#X restore 145 466 pd rock_organ;
#N canvas 72 198 1176 515 rock_organ 0;
#X obj 51 30 inlet;
#X obj 47 188 osc~;
#X obj 88 157 * 1.015;
#X obj 88 188 osc~;
#X obj 146 188 osc~;
#X obj 203 187 osc~;
#X obj 262 186 osc~;
#X obj 146 157 * 0.503;
#X obj 203 156 * 1.496;
#X obj 262 155 * 2.01;
#X obj 738 368 hsl 162 19 0 1 0 0 empty empty empty -2 -10 0 12 #fcfcfc #000000 #000000 0 1;
#X floatatom 124 56 5 0 0 0 - - - 0;
#X obj 494 451 outlet~;
#X obj 327 186 osc~;
#X obj 368 155 * 1.015;
#X obj 368 186 osc~;
#X obj 426 186 osc~;
#X obj 483 185 osc~;
#X obj 542 184 osc~;
#X obj 426 155 * 0.503;
#X obj 483 154 * 1.496;
#X obj 542 153 * 2.01;
#X obj 595 184 osc~;
#X obj 636 153 * 1.015;
#X obj 636 184 osc~;
#X obj 694 184 osc~;
#X obj 751 183 osc~;
#X obj 810 182 osc~;
#X obj 694 153 * 0.503;
#X obj 751 152 * 1.496;
#X obj 810 151 * 2.01;
#X obj 674 91 * 0.5;
#X obj 497 387 *~;
#X obj 372 303 +~;
#X obj 535 277 osc~ 5;
#X obj 535 307 *~ 50;
#X obj 441 90 * 2;
#X obj 934 319 loadbang;
#X obj 528 415 *~;
#X msg 849 321 0.005;
#X obj 876 268 adsr 40 200 0.8 50;
#X obj 886 49 inlet;
#X connect 0 0 1 0;
#X connect 0 0 2 0;
#X connect 0 0 7 0;
#X connect 0 0 8 0;
#X connect 0 0 9 0;
#X connect 0 0 11 0;
#X connect 0 0 31 0;
#X connect 0 0 36 0;
#X connect 1 0 33 0;
#X connect 2 0 3 0;
#X connect 3 0 33 0;
#X connect 4 0 33 0;
#X connect 5 0 33 0;
#X connect 6 0 33 0;
#X connect 7 0 4 0;
#X connect 8 0 5 0;
#X connect 9 0 6 0;
#X connect 10 0 38 1;
#X connect 13 0 33 0;
#X connect 14 0 15 0;
#X connect 15 0 33 0;
#X connect 16 0 33 0;
#X connect 17 0 33 0;
#X connect 18 0 33 0;
#X connect 19 0 16 0;
#X connect 20 0 17 0;
#X connect 21 0 18 0;
#X connect 22 0 33 0;
#X connect 23 0 24 0;
#X connect 24 0 33 0;
#X connect 25 0 33 0;
#X connect 26 0 33 0;
#X connect 27 0 33 0;
#X connect 28 0 25 0;
#X connect 29 0 26 0;
#X connect 30 0 27 0;
#X connect 31 0 23 0;
#X connect 31 0 28 0;
#X connect 31 0 29 0;
#X connect 31 0 30 0;
#X connect 31 0 22 0;
#X connect 32 0 38 0;
#X connect 33 0 32 0;
#X connect 34 0 35 0;
#X connect 35 0 33 1;
#X connect 36 0 14 0;
#X connect 36 0 13 0;
#X connect 36 0 19 0;
#X connect 36 0 20 0;
#X connect 36 0 21 0;
#X connect 37 0 39 0;
#X connect 38 0 12 0;
#X connect 39 0 10 0;
#X connect 40 0 32 1;
#X connect 41 0 40 0;
#X restore 244 465 pd rock_organ;
#N canvas 374 310 1176 515 rock_organ 0;
#X obj 51 30 inlet;
#X obj 47 188 osc~;
#X obj 88 157 * 1.015;
#X obj 88 188 osc~;
#X obj 146 188 osc~;
#X obj 203 187 osc~;
#X obj 262 186 osc~;
#X obj 146 157 * 0.503;
#X obj 203 156 * 1.496;
#X obj 262 155 * 2.01;
#X obj 738 368 hsl 162 19 0 1 0 0 empty empty empty -2 -10 0 12 #fcfcfc #000000 #000000 0 1;
#X floatatom 124 56 5 0 0 0 - - - 0;
#X obj 494 451 outlet~;
#X obj 876 39 inlet;
#X obj 327 186 osc~;
#X obj 368 155 * 1.015;
#X obj 368 186 osc~;
#X obj 426 186 osc~;
#X obj 483 185 osc~;
#X obj 542 184 osc~;
#X obj 426 155 * 0.503;
#X obj 483 154 * 1.496;
#X obj 542 153 * 2.01;
#X obj 595 184 osc~;
#X obj 636 153 * 1.015;
#X obj 636 184 osc~;
#X obj 694 184 osc~;
#X obj 751 183 osc~;
#X obj 810 182 osc~;
#X obj 694 153 * 0.503;
#X obj 751 152 * 1.496;
#X obj 810 151 * 2.01;
#X obj 674 91 * 0.5;
#X obj 497 387 *~;
#X obj 372 303 +~;
#X obj 535 277 osc~ 5;
#X obj 535 307 *~ 50;
#X obj 441 90 * 2;
#X obj 934 319 loadbang;
#X obj 537 415 *~;
#X msg 849 321 0.005;
#X obj 876 268 adsr 40 200 0.8 50;
#X connect 0 0 1 0;
#X connect 0 0 2 0;
#X connect 0 0 7 0;
#X connect 0 0 8 0;
#X connect 0 0 9 0;
#X connect 0 0 11 0;
#X connect 0 0 32 0;
#X connect 0 0 37 0;
#X connect 1 0 34 0;
#X connect 2 0 3 0;
#X connect 3 0 34 0;
#X connect 4 0 34 0;
#X connect 5 0 34 0;
#X connect 6 0 34 0;
#X connect 7 0 4 0;
#X connect 8 0 5 0;
#X connect 9 0 6 0;
#X connect 10 0 39 1;
#X connect 13 0 41 0;
#X connect 14 0 34 0;
#X connect 15 0 16 0;
#X connect 16 0 34 0;
#X connect 17 0 34 0;
#X connect 18 0 34 0;
#X connect 19 0 34 0;
#X connect 20 0 17 0;
#X connect 21 0 18 0;
#X connect 22 0 19 0;
#X connect 23 0 34 0;
#X connect 24 0 25 0;
#X connect 25 0 34 0;
#X connect 26 0 34 0;
#X connect 27 0 34 0;
#X connect 28 0 34 0;
#X connect 29 0 26 0;
#X connect 30 0 27 0;
#X connect 31 0 28 0;
#X connect 32 0 24 0;
#X connect 32 0 29 0;
#X connect 32 0 30 0;
#X connect 32 0 31 0;
#X connect 32 0 23 0;
#X connect 33 0 39 0;
#X connect 34 0 33 0;
#X connect 35 0 36 0;
#X connect 36 0 34 1;
#X connect 37 0 15 0;
#X connect 37 0 14 0;
#X connect 37 0 20 0;
#X connect 37 0 21 0;
#X connect 37 0 22 0;
#X connect 38 0 40 0;
#X connect 39 0 12 0;
#X connect 40 0 10 0;
#X connect 41 0 33 1;
#X restore 345 464 pd rock_organ;
#X obj 94 383 route 1 2 3 4;
#X obj 147 13 bng 19 250 50 0 empty stopbuttom empty 0 -10 0 12 #fcfcfc #000000 #000000;
#X obj 102 44 inlet;
#X obj 209 116 cyclone/midiparse;
#X obj 62 38 bng 19 250 50 0 empty empty empty 0 -10 0 12 #fcfcfc #000000 #000000;
#X obj 206 599 outlet~;
#X connect 0 0 17 0;
#X connect 0 0 18 0;
#X connect 1 0 2 0;
#X connect 1 1 3 0;
#X connect 2 0 14 0;
#X connect 3 0 16 0;
#X connect 4 0 5 0;
#X connect 4 1 6 0;
#X connect 7 0 8 0;
#X connect 7 1 9 0;
#X connect 14 0 15 0;
#X connect 15 0 19 0;
#X connect 16 0 19 1;
#X connect 17 0 29 1;
#X connect 17 0 28 1;
#X connect 17 0 27 1;
#X connect 17 0 26 1;
#X connect 18 0 33 0;
#X connect 19 0 20 0;
#X connect 20 0 21 0;
#X connect 20 1 21 1;
#X connect 20 2 21 2;
#X connect 21 0 30 0;
#X connect 22 0 26 0;
#X connect 22 1 26 1;
#X connect 23 0 27 0;
#X connect 23 1 27 1;
#X connect 24 0 28 0;
#X connect 24 1 28 1;
#X connect 25 0 29 0;
#X connect 25 1 29 1;
#X connect 26 0 35 0;
#X connect 27 0 35 0;
#X connect 28 0 35 0;
#X connect 29 0 35 0;
#X connect 30 0 22 0;
#X connect 30 1 23 0;
#X connect 30 2 24 0;
#X connect 30 3 25 0;
#X connect 31 0 0 0;
#X connect 32 0 18 0;
#X connect 33 0 1 0;
#X connect 33 1 4 0;
#X connect 33 2 7 0;
#X connect 33 3 10 0;
#X connect 33 4 11 0;
#X connect 33 5 12 0;
#X connect 33 6 13 0;
#X connect 34 0 18 0;
