#N canvas -85 25 1440 739 12;
#X obj 276 70 bng 19 250 50 0 empty empty empty 0 -10 0 12 #fcfcfc #000000 #000000;
#X obj 276 170 unpack;
#X floatatom 274 202 5 0 0 0 - - - 0;
#X floatatom 320 202 5 0 0 0 - - - 0;
#X obj 377 187 unpack;
#X floatatom 377 219 5 0 0 0 - - - 0;
#X floatatom 423 219 5 0 0 0 - - - 0;
#X obj 469 186 unpack;
#X floatatom 469 218 5 0 0 0 - - - 0;
#X floatatom 515 218 5 0 0 0 - - - 0;
#X floatatom 334 153 5 0 0 0 - - - 0;
#X floatatom 377 153 5 0 0 0 - - - 0;
#X floatatom 420 153 5 0 0 0 - - - 0;
#X floatatom 463 152 5 0 0 0 - - - 0;
#X obj 274 229 mtof;
#X obj 328 238 / 127;
#N canvas 816 169 696 691 square_wave 0;
#X floatatom 100 69 5 0 0 0 - - - 0;
#X obj 116 116 * -1;
#X obj 97 224 -~ 1;
#X obj 96 197 +~;
#X obj 98 15 inlet;
#X obj 98 348 outlet~;
#X obj 58 159 phasor~ 0;
#X obj 159 157 phasor~ 0.5;
#X obj 99 41 unpack;
#X obj 102 298 *~;
#X obj 145 227 adsr 0 10 1 0;
#X obj 178 61 select 0;
#X msg 175 97 0;
#X connect 0 0 1 0;
#X connect 0 0 6 0;
#X connect 1 0 7 0;
#X connect 2 0 9 0;
#X connect 3 0 2 0;
#X connect 4 0 8 0;
#X connect 6 0 3 0;
#X connect 7 0 3 1;
#X connect 8 0 0 0;
#X connect 8 1 10 0;
#X connect 8 1 11 0;
#X connect 9 0 5 0;
#X connect 10 0 9 1;
#X connect 11 0 12 0;
#X connect 12 0 0 0;
#X restore 182 445 pd square_wave;
#X msg 232 205 0;
#X obj 273 330 poly 2;
#X obj 273 356 pack 0 0 0;
#X obj 273 382 route 1 2;
#X obj 273 278 pack 0 0;
#X floatatom 334 406 5 0 0 0 - - - 0;
#X msg 319 69 stop;
#X obj 174 129 bng 19 250 50 0 empty empty empty 0 -10 0 12 #fcfcfc #000000 #000000;
#X obj 276 98 cyclone/seq Square_Waves_.mid;
#X obj 276 125 cyclone/midiparse;
#X obj 175 97 delay 48001;
#X obj 267 38 inlet;
#X obj 318 39 bng 19 250 50 0 empty stopbuttom empty 0 -10 0 12 #fcfcfc #000000 #000000;
#X obj 281 524 *~;
#X obj 357 487 loadbang;
#X msg 330 520 0.4;
#N canvas 430 166 696 691 square_wave2 0;
#X floatatom 99 90 5 0 0 0 - - - 0;
#X obj 116 116 * -1;
#X obj 97 224 -~ 1;
#X obj 96 197 +~;
#X obj 98 15 inlet;
#X obj 97 325 outlet~;
#X obj 58 159 phasor~ 0;
#X obj 159 157 phasor~ 0.5;
#X obj 99 41 unpack;
#X obj 103 274 *~;
#X obj 145 227 adsr 0 10 1 0;
#X obj 178 61 select 0;
#X msg 175 97 0;
#X connect 0 0 1 0;
#X connect 0 0 6 0;
#X connect 1 0 7 0;
#X connect 2 0 9 0;
#X connect 3 0 2 0;
#X connect 4 0 8 0;
#X connect 6 0 3 0;
#X connect 7 0 3 1;
#X connect 8 0 0 0;
#X connect 8 1 11 0;
#X connect 8 1 10 0;
#X connect 9 0 5 0;
#X connect 10 0 9 1;
#X connect 11 0 12 0;
#X connect 12 0 0 0;
#X restore 300 445 pd square_wave2;
#X msg 164 233 clear;
#X obj 281 556 outlet~;
#X obj 579 602 netsend -u -b;
#X obj 600 557 packOSC;
#X msg 764 481 disconnect;
#X obj 78 167 print;
#X msg 1046 671 send /track/4/azim \$1;
#X obj 526 118 expr if($f1>0 \, $f2+1 \, $f2);
#X floatatom 711 65 5 0 0 0 - - - 0;
#X floatatom 752 157 5 0 0 0 - - - 0;
#X msg 735 601 send /sw1 \$1;
#X msg 732 570 send /sw2 \$1;
#X msg 707 27 0;
#X msg 750 530 send /sw3 \$1;
#X msg 1050 632 send /track/4/elev \$1;
#X msg 1057 593 send /track/4/dist \$1;
#X msg 793 262 0;
#X msg 834 264 90;
#X msg 880 264 0;
#X msg 922 264 270;
#X msg 961 265 0;
#X msg 1002 266 0;
#X floatatom 798 346 5 0 0 0 - - - 0;
#X msg 974 374 0;
#X floatatom 940 434 5 0 0 0 - - - 0;
#X floatatom 1146 316 5 0 0 0 - - - 0;
#X obj 848 654 netsend -u -b;
#X obj 869 609 packOSC;
#X msg 1023 548 disconnect;
#X msg 887 372 90;
#X msg 928 374 15;
#X msg 1016 374 15;
#X msg 1055 375 15;
#X msg 1109 257 1;
#X msg 1236 258 1;
#X msg 1197 257 1;
#X msg 1096 376 30;
#X msg 1068 255 0.5;
#X msg 1155 257 0.5;
#X obj 805 222 sel 0 1 2 3 4 5 6;
#X obj 1080 215 sel 0 1 2 3 4 5 6;
#X obj 899 332 sel 0 1 2 3 4 5 6;
#X obj 537 346 r connect_to_processing;
#X obj 851 547 r connect_to_panoramix;
#X obj 749 101 expr if($f1<=20 \, 0 \, if($f1<=40 \, 1 \, if($f1<=60 \, 2 \, if($f1<=80 \, 3 \, if($f1<=115 \, 4 \, if($f1<=1000 \, 5 \, 6))))));
#X msg 1277 259 0.5;
#X connect 0 0 25 0;
#X connect 0 0 27 0;
#X connect 0 0 32 0;
#X connect 1 0 2 0;
#X connect 1 1 3 0;
#X connect 2 0 14 0;
#X connect 2 0 47 0;
#X connect 3 0 15 0;
#X connect 3 0 44 0;
#X connect 3 0 41 0;
#X connect 4 0 5 0;
#X connect 4 1 6 0;
#X connect 7 0 8 0;
#X connect 7 1 9 0;
#X connect 14 0 21 0;
#X connect 15 0 21 1;
#X connect 16 0 30 0;
#X connect 17 0 2 0;
#X connect 17 0 3 0;
#X connect 17 0 19 2;
#X connect 17 0 16 0;
#X connect 17 0 33 0;
#X connect 17 0 30 1;
#X connect 18 0 19 0;
#X connect 18 1 19 1;
#X connect 18 2 19 2;
#X connect 19 0 20 0;
#X connect 20 0 16 0;
#X connect 20 1 33 0;
#X connect 20 2 22 0;
#X connect 21 0 18 0;
#X connect 23 0 17 0;
#X connect 23 0 25 0;
#X connect 23 0 18 0;
#X connect 23 0 34 0;
#X connect 24 0 17 0;
#X connect 25 0 26 0;
#X connect 26 0 1 0;
#X connect 26 0 39 0;
#X connect 26 1 4 0;
#X connect 26 2 7 0;
#X connect 26 3 10 0;
#X connect 26 4 11 0;
#X connect 26 5 12 0;
#X connect 26 6 13 0;
#X connect 27 0 24 0;
#X connect 28 0 0 0;
#X connect 28 0 46 0;
#X connect 29 0 23 0;
#X connect 30 0 35 0;
#X connect 31 0 32 0;
#X connect 32 0 30 1;
#X connect 33 0 30 0;
#X connect 34 0 18 0;
#X connect 37 0 36 0;
#X connect 38 0 36 0;
#X connect 40 0 61 0;
#X connect 41 0 42 0;
#X connect 42 0 41 1;
#X connect 42 0 78 0;
#X connect 43 0 45 0;
#X connect 43 0 73 0;
#X connect 43 0 74 0;
#X connect 43 0 75 0;
#X connect 44 0 37 0;
#X connect 45 0 37 0;
#X connect 46 0 42 0;
#X connect 47 0 37 0;
#X connect 48 0 61 0;
#X connect 49 0 61 0;
#X connect 50 0 56 0;
#X connect 51 0 56 0;
#X connect 52 0 56 0;
#X connect 53 0 56 0;
#X connect 54 0 56 0;
#X connect 55 0 56 0;
#X connect 56 0 40 0;
#X connect 57 0 58 0;
#X connect 58 0 48 0;
#X connect 59 0 49 0;
#X connect 61 0 60 0;
#X connect 62 0 60 0;
#X connect 63 0 58 0;
#X connect 64 0 58 0;
#X connect 65 0 58 0;
#X connect 66 0 58 0;
#X connect 67 0 59 0;
#X connect 68 0 59 0;
#X connect 69 0 59 0;
#X connect 70 0 58 0;
#X connect 71 0 59 0;
#X connect 72 0 59 0;
#X connect 73 0 50 0;
#X connect 73 1 51 0;
#X connect 73 2 52 0;
#X connect 73 3 53 0;
#X connect 73 4 54 0;
#X connect 73 5 55 0;
#X connect 74 0 71 0;
#X connect 74 1 67 0;
#X connect 74 2 72 0;
#X connect 74 3 69 0;
#X connect 74 4 68 0;
#X connect 74 5 79 0;
#X connect 75 0 63 0;
#X connect 75 1 64 0;
#X connect 75 2 57 0;
#X connect 75 3 65 0;
#X connect 75 4 66 0;
#X connect 75 5 70 0;
#X connect 76 0 36 0;
#X connect 77 0 60 0;
#X connect 78 0 43 0;
#X connect 79 0 59 0;
